<?xml version="1.0" encoding="utf-8"?>
<!-- Generator: Adobe Illustrator 19.2.1, SVG Export Plug-In . SVG Version: 6.00 Build 0)  -->
<svg version="1.1" id="Layer_1" xmlns="http://www.w3.org/2000/svg" xmlns:xlink="http://www.w3.org/1999/xlink" x="0px" y="0px"
	 viewBox="0 0 93.7 18.6" style="enable-background:new 0 0 93.7 18.6;" xml:space="preserve">
<style type="text/css">
	.st0{fill:#8FA84D;}
	.st1{fill:#655749;}
</style>
<g>
	<g>
		<path class="st0" d="M10.1,5c0,0,0.1-2.3-1.6-3.8C7.8,0.6,6.7,0,5.1,0C3.5,0,2.5,0.6,1.8,1.1C-0.1,2.5,0,4.8,0,4.8v9
			c0,0.3,0.3,0.6,0.6,0.6c0.3,0,0.6-0.3,0.6-0.6V9.7h7.7v4.1c0,0.3,0.3,0.6,0.6,0.6c0.3,0,0.6-0.3,0.6-0.6c0,0,0-0.1,0-0.1V5z
			 M8.9,8.5H1.3V4.9c0,0-0.1-1.9,1.4-3C3.2,1.5,4,1.1,5.1,1.1C6.2,1.1,7,1.6,7.6,2C9,3.1,8.9,4.9,8.9,4.9V8.5z M16.4,3.4
			c-4.1,0-4.1,4.2-4.1,4.2v6.1c0,0.3,0.3,0.6,0.6,0.6c0.3,0,0.6-0.3,0.6-0.6c0,0,0,0,0,0h0V9.5h3.5v0c0.3,0,0.6-0.3,0.6-0.6
			c0-0.3-0.2-0.6-0.6-0.6v0h-3.5V7.6c0,0-0.1-3,2.8-3c2.8,0,3,2.9,3,2.9c0,0.3,0.3,0.6,0.6,0.6c0.3,0,0.6-0.3,0.6-0.6
			C20.6,7.6,20.5,3.4,16.4,3.4z M30,10.1c-0.3,0-0.6,0.2-0.6,0.5l0,0c0,0,0,2.8-3,2.9c-3,0-2.7-3.2-2.7-3.2V9.5h3.4
			c0.3,0,0.6-0.2,0.6-0.5c0-0.3-0.2-0.5-0.6-0.5h-3.4V4h0c0-0.3-0.3-0.6-0.6-0.6c-0.3,0-0.6,0.3-0.6,0.6c0,0,0,0.1,0,0.1v6.2
			c0,0-0.2,4.4,4,4.4c3.8-0.1,4.1-3.3,4.1-3.9c0,0,0-0.1,0-0.1C30.6,10.4,30.4,10.1,30,10.1z M43.9,9.1c0-0.6-0.5-5.6-6-5.6
			c-3.2,0-5.6,2.7-5.6,5.6c0,2.6,1.9,5.6,5.5,5.6c2.9,0,4.3-1.5,4.7-2.1c0.1-0.1,0.1-0.1,0.2-0.2c0-0.1,0-0.1,0-0.2
			c0-0.3-0.3-0.6-0.6-0.6c-0.2,0-0.3,0.1-0.4,0.2l0,0c0,0-1.4,1.9-3.6,1.9c-4,0-4.6-3.9-4.6-3.9h9.6l0,0C43.6,9.8,43.9,9.5,43.9,9.1
			C43.9,9.2,43.9,9.1,43.9,9.1C43.9,9.1,43.9,9.1,43.9,9.1z M33.6,8.8c0,0,0.3-4.1,4.5-4.1c4.2,0,4.5,4.1,4.5,4.1H33.6z M54.1,7.5
			c-0.1-0.6-0.6-4-4.3-4c-4.1,0-4,4.3-4,4.3v6c0,0.3,0.3,0.6,0.6,0.6c0.3,0,0.6-0.3,0.6-0.6c0,0,0,0,0,0V7.7c0,0-0.1-3,2.7-3
			c2.3,0,2.8,1.9,2.9,2.5c0.1,0.4,0.2,0.7,0.2,0.7l0,0c0.1,0.2,0.3,0.3,0.5,0.3C53.8,8.2,54.1,7.9,54.1,7.5
			C54.1,7.5,54.1,7.5,54.1,7.5z"/>
	</g>
</g>
<g>
	<g>
		<path class="st1" d="M61.1,0.5c-4.6,0-4.6,4.8-4.6,4.8v9c0,0.3,0.3,0.6,0.6,0.6c0.3,0,0.6-0.3,0.6-0.6c0,0,0-0.1,0-0.1V9.7
			c0,0,0.2,0,3.6,0c3.4,0,4.6-2.6,4.6-4.6C65.9,3.1,64.6,0.5,61.1,0.5z M60.6,8.6h-2.9V5.2c0,0-0.3-3.6,3.5-3.6c2.6,0,3.5,2,3.5,3.6
			C64.7,6.8,63.6,8.6,60.6,8.6z M73,4c-3.5,0-5.8,2.5-5.8,5.9c0,3.2,3.1,5.3,5.5,5.3c3.6,0,4.6-2.4,4.6-2.4v1.5c0,0,0,0,0,0
			c0,0.3,0.3,0.6,0.6,0.6c0.3,0,0.6-0.3,0.6-0.6v-5C78.6,9.3,78.6,4,73,4z M73,14.1c-2.5,0-4.5-2-4.5-4.6c0-2.5,2-4.6,4.5-4.6
			c2.5,0,4.5,2,4.5,4.6C77.5,12.1,75.5,14.1,73,14.1z M89.5,4.9L89.5,4.9c0-0.3-0.3-0.6-0.6-0.6c-0.3,0-0.6,0.3-0.6,0.6
			c0,0,0,0.1,0,0.1v6c0,0,0,3-3,3c-2.9,0-2.9-3-2.9-3V5c0,0,0-0.1,0-0.1c0-0.3-0.3-0.6-0.6-0.6c-0.3,0-0.6,0.3-0.6,0.6v5.9
			c0,0-0.2,4.3,4.1,4.3c2,0,2.9-1.3,2.9-1.3s0.4,3.6-2.8,3.6c-1.5,0-2.4-1.1-2.7-1.5c-0.1-0.2-0.3-0.4-0.6-0.4
			c-0.3,0-0.6,0.3-0.6,0.6c0,0.1,0,0.2,0.1,0.3c0.2,0.4,1.1,2.2,3.4,2.2c4.8,0,4.4-4.9,4.4-4.9V4.9z M92.8,2.8c0-0.1,0-0.3,0-0.3
			s0-0.2-0.1-0.3c-0.1-0.1-0.2-0.1-0.2-0.1s0.4,0,0.4-0.5c0-0.4-0.5-0.4-0.5-0.4l-0.8,0v1.6h0.3V2.2h0.3c0,0,0.2,0,0.3,0.1
			s0.1,0.2,0.1,0.2v0.4L92.8,2.8C92.9,2.9,92.8,2.8,92.8,2.8z M92.2,2h-0.4V1.4c0,0,0.4,0,0.4,0s0.3,0,0.3,0.3C92.5,2,92.2,2,92.2,2
			z M92.2,0.6c-0.8,0-1.5,0.7-1.5,1.5c0,0.8,0.7,1.5,1.5,1.5s1.5-0.7,1.5-1.5C93.7,1.2,93,0.6,92.2,0.6z M92.2,3.3
			c-0.7,0-1.3-0.6-1.3-1.3c0-0.7,0.6-1.3,1.3-1.3c0.7,0,1.3,0.6,1.3,1.3C93.4,2.8,92.9,3.3,92.2,3.3z"/>
	</g>
</g>
</svg>
