<?xml version="1.0" encoding="utf-8"?>
<!-- Generator: Adobe Illustrator 19.2.1, SVG Export Plug-In . SVG Version: 6.00 Build 0)  -->
<svg version="1.1" id="Layer_1" xmlns="http://www.w3.org/2000/svg" xmlns:xlink="http://www.w3.org/1999/xlink" x="0px" y="0px"
	 viewBox="0 0 241.3 149.6" style="enable-background:new 0 0 241.3 149.6;" xml:space="preserve">
<style type="text/css">
	.st0{fill:#005596;}
	.st1{fill:#FFDD00;}
</style>
<g>
	<path class="st0" d="M215,26.1h-11.3h-52.1h-11.3l-7.6,8.6L108,62.4v0l-7.6,8.6H89.2H38H26.7l7.5-8.7l3.5-4.1l7.5-8.7H34H19.4h-8.1
		C5.1,49.5,0,54.7,0,61.1v0v22.3v2.1c0,6.4,5.1,11.6,11.3,11.6h3.2h118.4h8.5c6.2,0,14.7-3.9,18.8-8.6l19.7-22.4L215,26.1z"/>
	<path class="st1" d="M230,0c6.2,0,11.3,5.2,11.3,11.6V36c0,6.4-5.1,11.6-11.3,11.6h-6.1h-16.4h-11.3l7.5-8.6c0,0,0,0,0,0l3.7-4.3
		l7.5-8.6h-74.7L100.4,71H26.3l53.2-60.1l2-2.3C85.7,3.9,94.1,0,100.3,0h2.6H230z"/>
</g>
<g>
	<path class="st0" d="M100.4,123.2c-0.6-0.2-1.5-0.3-2.5-0.5c-1-0.2-2.2-0.2-3.6-0.2c-3.2,0-5.8,1-7.8,3c-1.9,2-2.9,4.9-2.9,8.6v3.9
		c0,3.8,1,6.7,2.9,8.6c1.9,2,4.5,3,7.8,3c1.4,0,2.6-0.1,3.6-0.2c1-0.2,1.9-0.3,2.5-0.5c0.3-0.1,0.6-0.2,0.7-0.3
		c0.2-0.1,0.2-0.4,0.2-0.7v-4.1c0-0.2-0.1-0.4-0.3-0.6c-0.2-0.1-0.4-0.2-0.6-0.2h-0.1c-0.9,0.1-1.7,0.2-2.5,0.2
		c-0.8,0.1-1.8,0.1-3.1,0.1c-0.5,0-1-0.1-1.5-0.3c-0.5-0.2-0.9-0.5-1.2-0.9c-0.3-0.4-0.6-1-0.8-1.7c-0.2-0.7-0.3-1.5-0.3-2.6v-3.9
		c0-1,0.1-1.9,0.3-2.6c0.2-0.7,0.5-1.2,0.8-1.7c0.3-0.4,0.7-0.7,1.2-0.9c0.5-0.2,0.9-0.3,1.5-0.3c1.3,0,2.4,0,3.1,0.1
		c0.8,0.1,1.6,0.1,2.5,0.2h0.1c0.2,0,0.5-0.1,0.6-0.2c0.2-0.1,0.3-0.3,0.3-0.6v-4.1c0-0.3-0.1-0.6-0.2-0.7
		C101,123.4,100.7,123.3,100.4,123.2z"/>
	<path class="st0" d="M47.7,124.7c-0.9-0.8-2-1.3-3.4-1.7c-1.3-0.4-2.8-0.5-4.5-0.5c-1.5,0-3,0.1-4.5,0.3c-1.5,0.2-2.6,0.4-3.5,0.6
		c-0.6,0.2-0.9,0.5-0.9,1v3.7c0,0.3,0.1,0.5,0.2,0.6c0.2,0.1,0.4,0.2,0.6,0.2h0.2c0.4,0,0.8-0.1,1.4-0.1c0.6,0,1.2-0.1,1.9-0.1
		c0.7,0,1.4-0.1,2.2-0.1c0.8,0,1.5,0,2.2,0c1.1,0,1.9,0.2,2.5,0.6c0.6,0.4,0.9,1.3,0.9,2.6v1.7h-2.5c-4,0-6.8,0.6-8.6,1.9
		c-1.8,1.2-2.7,3.2-2.7,5.9v0.4c0,1.5,0.2,2.8,0.7,3.8c0.4,1,1,1.8,1.8,2.4c0.7,0.6,1.6,1.1,2.5,1.3c0.9,0.3,1.9,0.4,2.9,0.4
		c1.4,0,2.6-0.2,3.6-0.6c1-0.4,1.9-0.9,2.8-1.5v0.7c0,0.2,0.1,0.5,0.3,0.6c0.2,0.2,0.4,0.3,0.6,0.3h5.1c0.2,0,0.5-0.1,0.6-0.3
		c0.2-0.2,0.3-0.4,0.3-0.6v-16.4c0-1.7-0.3-3.1-0.8-4.3C49.4,126.4,48.6,125.4,47.7,124.7z M43.3,143c-0.6,0.3-1.1,0.5-1.8,0.7
		c-0.6,0.2-1.3,0.3-2,0.3c-1,0-1.7-0.1-2.2-0.4c-0.5-0.3-0.7-0.9-0.7-1.9v-0.4c0-0.6,0.1-1,0.2-1.5c0.1-0.4,0.3-0.8,0.6-1.1
		c0.3-0.3,0.7-0.5,1.2-0.6c0.5-0.1,1.2-0.2,2-0.2h2.6V143z"/>
	<path class="st0" d="M21.3,131.8c1.2-0.6,2.2-1.5,2.9-2.7c0.7-1.2,1-2.5,1-4v-0.8c0-1.8-0.4-3.4-1.1-4.6c-0.7-1.2-1.7-2.2-3-2.9
		c-1.3-0.7-2.8-1.3-4.6-1.6c-1.8-0.3-3.8-0.5-5.9-0.5c-0.7,0-1.5,0-2.3,0c-0.8,0-1.6,0.1-2.3,0.1c-0.8,0-1.4,0.1-2.1,0.2
		c-0.6,0.1-1.1,0.1-1.5,0.2c-0.9,0.2-1.5,0.4-1.9,0.8c-0.4,0.4-0.6,1.1-0.6,2.2v28c0,1,0.2,1.8,0.6,2.2c0.4,0.4,1,0.7,2,0.8
		c0.5,0.1,1,0.2,1.7,0.2c0.6,0.1,1.3,0.1,2.1,0.2c0.8,0,1.5,0.1,2.3,0.1c0.8,0,1.6,0,2.3,0c2,0,3.9-0.2,5.6-0.5
		c1.8-0.3,3.3-0.9,4.6-1.6c1.3-0.8,2.3-1.8,3.1-3.2c0.8-1.3,1.1-3,1.1-5v-0.7c0-1.6-0.4-3-1.1-4.1C23.5,133.3,22.6,132.4,21.3,131.8
		z M7.8,121.1c0.2,0,0.4,0,0.7,0c0.3,0,0.7,0,1,0h1h0.8c2.4,0,4,0.3,4.9,0.9c0.9,0.6,1.4,1.5,1.4,2.8v0.7c0,0.5-0.1,1-0.2,1.4
		c-0.2,0.4-0.4,0.8-0.8,1.1c-0.4,0.3-0.8,0.6-1.4,0.8c-0.6,0.2-1.4,0.3-2.3,0.3H7.8V121.1z M17.8,139.1c0,1.3-0.5,2.3-1.4,3
		c-0.9,0.7-2.5,1.1-4.9,1.1h-0.8c-0.4,0-0.7,0-1.1,0c-0.4,0-0.8,0-1.1,0H7.8v-8.6h5.1c1.8,0,3.1,0.4,3.8,1.2
		c0.7,0.8,1.1,1.8,1.1,2.9V139.1z"/>
	<path class="st0" d="M77.2,125.5c-0.6-0.9-1.4-1.7-2.5-2.2c-1.1-0.6-2.4-0.8-4.1-0.8c-1.5,0-2.8,0.2-3.9,0.5
		c-1.1,0.4-2.3,1-3.6,1.9v-1.1c0-0.2-0.1-0.5-0.3-0.6c-0.2-0.2-0.4-0.3-0.6-0.3h-5.1c-0.2,0-0.5,0.1-0.6,0.3
		c-0.2,0.2-0.3,0.4-0.3,0.6v24.5c0,0.2,0.1,0.5,0.3,0.7c0.2,0.2,0.4,0.3,0.7,0.3h5.6c0.2,0,0.5-0.1,0.6-0.3c0.2-0.2,0.3-0.4,0.3-0.7
		v-18.1c0.8-0.4,1.5-0.8,2.3-1.1c0.7-0.3,1.4-0.4,2.1-0.4c0.7,0,1.3,0.1,1.7,0.2c0.4,0.1,0.8,0.4,1,0.7c0.2,0.3,0.4,0.8,0.5,1.3
		c0.1,0.6,0.1,1.2,0.1,2v15.3c0,0.2,0.1,0.5,0.3,0.7c0.2,0.2,0.4,0.3,0.6,0.3h5.6c0.2,0,0.5-0.1,0.7-0.3c0.2-0.2,0.3-0.4,0.3-0.7
		v-15.3c0-1.4-0.1-2.8-0.3-4.1C78.2,127.6,77.8,126.5,77.2,125.5z"/>
	<path class="st0" d="M195.9,124.7c-0.9-0.8-2-1.3-3.4-1.7c-1.3-0.4-2.8-0.5-4.5-0.5c-1.5,0-3,0.1-4.5,0.3c-1.5,0.2-2.6,0.4-3.5,0.6
		c-0.6,0.2-0.9,0.5-0.9,1v3.7c0,0.3,0.1,0.5,0.2,0.6c0.2,0.1,0.4,0.2,0.6,0.2h0.2c0.4,0,0.8-0.1,1.4-0.1c0.6,0,1.2-0.1,1.9-0.1
		c0.7,0,1.4-0.1,2.2-0.1c0.8,0,1.5,0,2.2,0c1.1,0,1.9,0.2,2.5,0.6c0.6,0.4,0.9,1.3,0.9,2.6v1.7h-2.5c-4,0-6.8,0.6-8.6,1.9
		c-1.8,1.2-2.7,3.2-2.7,5.9v0.4c0,1.5,0.2,2.8,0.7,3.8c0.4,1,1,1.8,1.8,2.4c0.7,0.6,1.6,1.1,2.5,1.3c0.9,0.3,1.9,0.4,2.9,0.4
		c1.4,0,2.6-0.2,3.6-0.6c1-0.4,1.9-0.9,2.8-1.5v0.7c0,0.2,0.1,0.5,0.3,0.6c0.2,0.2,0.4,0.3,0.6,0.3h5.1c0.2,0,0.5-0.1,0.6-0.3
		c0.2-0.2,0.3-0.4,0.3-0.6v-16.4c0-1.7-0.3-3.1-0.8-4.3C197.6,126.4,196.9,125.4,195.9,124.7z M191.5,143c-0.6,0.3-1.1,0.5-1.8,0.7
		c-0.6,0.2-1.3,0.3-2,0.3c-1,0-1.7-0.1-2.2-0.4c-0.5-0.3-0.7-0.9-0.7-1.9v-0.4c0-0.6,0.1-1,0.2-1.5c0.1-0.4,0.3-0.8,0.6-1.1
		c0.3-0.3,0.7-0.5,1.2-0.6c0.5-0.1,1.2-0.2,2-0.2h2.6V143z"/>
	<path class="st0" d="M123.9,125.7c-1-1-2.2-1.8-3.6-2.4c-1.4-0.6-3.1-0.9-5-0.9s-3.5,0.3-5,0.9c-1.4,0.6-2.6,1.4-3.6,2.4
		c-1,1-1.7,2.3-2.2,3.7c-0.5,1.5-0.8,3.1-0.8,5v3.2c0,1.8,0.3,3.5,0.8,5c0.5,1.5,1.3,2.7,2.2,3.7c1,1,2.2,1.8,3.6,2.4
		c1.4,0.6,3.1,0.9,5,0.9s3.5-0.3,5-0.9c1.4-0.6,2.6-1.4,3.6-2.4c1-1,1.7-2.3,2.2-3.7c0.5-1.5,0.8-3.1,0.8-5v-3.2
		c0-1.8-0.3-3.5-0.8-5C125.6,128,124.9,126.7,123.9,125.7z M119.4,137.6c0,3.8-1.4,5.7-4.1,5.7c-1.3,0-2.4-0.5-3.1-1.4
		c-0.7-0.9-1.1-2.4-1.1-4.2v-3.2c0-1.9,0.4-3.3,1.1-4.2c0.7-0.9,1.7-1.4,3.1-1.4c2.7,0,4.1,1.9,4.1,5.6V137.6z"/>
	<path class="st0" d="M240.3,144H238c-0.7,0-1.1-0.1-1.3-0.4c-0.2-0.3-0.2-0.9-0.2-1.8v-13.4h3.8c0.2,0,0.5-0.1,0.6-0.3
		c0.2-0.2,0.3-0.4,0.3-0.6v-3.8c0-0.2-0.1-0.5-0.3-0.6c-0.2-0.2-0.4-0.3-0.6-0.3h-3.8V118c0-0.2-0.1-0.4-0.2-0.6
		c-0.2-0.1-0.4-0.2-0.6-0.2h-0.1l-5.6,1c-0.2,0.1-0.5,0.2-0.6,0.3c-0.2,0.2-0.3,0.4-0.3,0.6v3.8h-3.7c-0.2,0-0.5,0.1-0.7,0.3
		c-0.2,0.2-0.3,0.4-0.3,0.7v3c0,0.2,0.1,0.5,0.3,0.6c0.2,0.2,0.4,0.3,0.7,0.3l3.7,0.6v13.3c0,1.6,0.2,2.9,0.5,4
		c0.3,1,0.8,1.8,1.5,2.4c0.6,0.6,1.4,1,2.4,1.2c1,0.2,2.1,0.3,3.3,0.3c0.7,0,1.3,0,1.8-0.1c0.5-0.1,1.1-0.2,1.8-0.3
		c0.6-0.1,0.9-0.4,0.9-0.9v-3.6C241.3,144.3,240.9,144,240.3,144z"/>
	<path class="st0" d="M220.5,123.2c-0.6-0.2-1.5-0.3-2.5-0.5c-1-0.2-2.2-0.2-3.6-0.2c-3.2,0-5.8,1-7.8,3c-1.9,2-2.9,4.9-2.9,8.6v3.9
		c0,3.8,1,6.7,2.9,8.6c1.9,2,4.5,3,7.8,3c1.4,0,2.6-0.1,3.6-0.2c1-0.2,1.9-0.3,2.5-0.5c0.3-0.1,0.6-0.2,0.7-0.3
		c0.2-0.1,0.2-0.4,0.2-0.7v-4.1c0-0.2-0.1-0.4-0.3-0.6c-0.2-0.1-0.4-0.2-0.6-0.2h-0.1c-0.9,0.1-1.7,0.2-2.5,0.2
		c-0.8,0.1-1.8,0.1-3.1,0.1c-0.5,0-1-0.1-1.5-0.3c-0.5-0.2-0.9-0.5-1.2-0.9c-0.3-0.4-0.6-1-0.8-1.7c-0.2-0.7-0.3-1.5-0.3-2.6v-3.9
		c0-1,0.1-1.9,0.3-2.6c0.2-0.7,0.5-1.2,0.8-1.7c0.3-0.4,0.7-0.7,1.2-0.9c0.5-0.2,0.9-0.3,1.5-0.3c1.3,0,2.4,0,3.1,0.1
		c0.8,0.1,1.6,0.1,2.5,0.2h0.1c0.2,0,0.5-0.1,0.6-0.2c0.2-0.1,0.3-0.3,0.3-0.6v-4.1c0-0.3-0.1-0.6-0.2-0.7
		C221.1,123.4,220.8,123.3,220.5,123.2z"/>
	<path class="st0" d="M173.3,144h-2.3c-0.7,0-1.1-0.1-1.3-0.4c-0.2-0.3-0.2-0.9-0.2-1.8v-13.4h3.8c0.2,0,0.5-0.1,0.6-0.3
		c0.2-0.2,0.3-0.4,0.3-0.6v-3.8c0-0.2-0.1-0.5-0.3-0.6c-0.2-0.2-0.4-0.3-0.6-0.3h-3.8V118c0-0.2-0.1-0.4-0.2-0.6
		c-0.2-0.1-0.4-0.2-0.6-0.2h-0.1l-5.6,1c-0.2,0.1-0.5,0.2-0.6,0.3c-0.2,0.2-0.3,0.4-0.3,0.6v3.8h-3.7c-0.2,0-0.5,0.1-0.7,0.3
		c-0.2,0.2-0.3,0.4-0.3,0.7v3c0,0.2,0.1,0.5,0.3,0.6c0.2,0.2,0.4,0.3,0.7,0.3l3.7,0.6v13.3c0,1.6,0.2,2.9,0.5,4
		c0.3,1,0.8,1.8,1.5,2.4c0.6,0.6,1.4,1,2.4,1.2c1,0.2,2.1,0.3,3.3,0.3c0.7,0,1.3,0,1.8-0.1c0.5-0.1,1.1-0.2,1.8-0.3
		c0.6-0.1,0.9-0.4,0.9-0.9v-3.6C174.3,144.3,174,144,173.3,144z"/>
	<path class="st0" d="M152.7,125.5c-0.6-0.9-1.4-1.7-2.5-2.2c-1.1-0.6-2.4-0.8-4.1-0.8c-1.5,0-2.8,0.2-3.9,0.5
		c-1.1,0.4-2.3,1-3.6,1.9v-1.1c0-0.2-0.1-0.5-0.3-0.6c-0.2-0.2-0.4-0.3-0.6-0.3h-5.1c-0.2,0-0.5,0.1-0.6,0.3
		c-0.2,0.2-0.3,0.4-0.3,0.6v24.5c0,0.2,0.1,0.5,0.3,0.7c0.2,0.2,0.4,0.3,0.7,0.3h5.6c0.2,0,0.5-0.1,0.6-0.3c0.2-0.2,0.3-0.4,0.3-0.7
		v-18.1c0.8-0.4,1.5-0.8,2.3-1.1c0.7-0.3,1.4-0.4,2.1-0.4c0.7,0,1.3,0.1,1.7,0.2c0.4,0.1,0.8,0.4,1,0.7c0.2,0.3,0.4,0.8,0.5,1.3
		c0.1,0.6,0.1,1.2,0.1,2v15.3c0,0.2,0.1,0.5,0.3,0.7c0.2,0.2,0.4,0.3,0.6,0.3h5.6c0.2,0,0.5-0.1,0.7-0.3c0.2-0.2,0.3-0.4,0.3-0.7
		v-15.3c0-1.4-0.1-2.8-0.3-4.1C153.7,127.6,153.2,126.5,152.7,125.5z"/>
</g>
</svg>
