<svg xmlns="http://www.w3.org/2000/svg" viewBox="0 0 1201.71 475.55"><defs><style>.cls-1,.cls-3{fill:#0054a5;}.cls-2{fill:#ffc10e;}.cls-3{font-size:82.89px;font-family:Arial-BoldMT, Arial;font-weight:700;letter-spacing:0.1em;}</style></defs><title>banktransfer</title><g id="Layer_1" data-name="Layer 1"><path class="cls-1" d="M347.9,273.21H265.67q0-20.25-4.74-27.16-7.33-10.23-40.5-10.24-32.2,0-42.64,5.9t-10.42,25.73q0,17.94,9.25,23.6,6.62,4,17.53,4.72l16.58,1.17q53.31,3.54,66.59,5,42.15,4.25,61.12,22.42,14.91,14.18,17.77,37.05a258.35,258.35,0,0,1,1.66,30.92q0,39.65-7.58,58.06-13.73,33.78-61.72,42.71-20.11,3.79-61.5,3.79-69.07,0-96.26-8.25-33.36-10.12-44-41-5.94-17.19-5.91-57.27h82.22c0,3,0,5.25,0,6.83q0,21.38,12.28,27.51,8.51,4.23,20.56,4.47h30.23q23.13,0,29.51-2.38,11.34-4.46,14.89-14.37a54.85,54.85,0,0,0,1.89-15.81q0-21.69-15.82-26.41-5.91-1.87-55-5.19-39.42-2.81-54.76-5.43Q106.54,352,93.11,328.43q-11.81-20-11.8-60.61,0-30.88,6.37-49.51T108.26,190q20.79-14.87,53.18-17.46,27-2.34,59.82-2.36,51.77,0,73.76,5.91,53.69,14.43,53.67,80.8C348.69,260.53,348.43,266,347.9,273.21Z" transform="translate(-80.91 -168.45)"/><path class="cls-1" d="M709.48,496.85V168.45H874.14q33.89,0,51.66,5.53,40.63,12.74,54.57,52.12,7.2,20.67,7.2,62.24,0,50-7.94,71.82-15.84,43.23-65.13,49.73-5.79,1-49.28,1.68l-14.67.49H797.86v84.79Zm88.38-161H853q26.2-.94,31.92-4.08c5.22-2.86,8.73-8.62,10.47-17.24Q897,306,897,289q0-20.85-3.33-30.91-4.77-14.13-22.85-17.24c-2.39-.32-8.09-.49-17.14-.49H797.86Z" transform="translate(-80.91 -168.45)"/><path class="cls-1" d="M1176.24,440.09H1058.07l-15.88,56.76H950.75l98.66-328.4h133.33l99.88,328.4H1193.1Zm-17.56-64-41.41-142.36-40.18,142.36Z" transform="translate(-80.91 -168.45)"/><path class="cls-2" d="M587.49,214.65a116.2,116.2,0,0,1,90.37,43.1l19-40.85a167,167,0,0,0-115.08-45.52c-69.64,0-129.21,42.06-153.66,101.59H391l-21.93,47h47.79c-.36,4.36-.59,8.73-.59,13.18a159.34,159.34,0,0,0,.81,16h-24l-21.94,47h58.17c25.14,58,84,98.77,152.52,98.77A167.52,167.52,0,0,0,675,467V409.3A116.29,116.29,0,0,1,490,396.21H611.83l21.94-47H472.12a119.32,119.32,0,0,1-1.28-17.33c0-4,.21-7.93.59-11.83H647.36l21.94-47H486.64A116.48,116.48,0,0,1,587.49,214.65Z" transform="translate(-80.91 -168.45)"/><path class="cls-1" d="M587.49,216.06a114.68,114.68,0,0,1,89.27,42.58l1.42,1.75,1-2,19-40.85.43-.93-.73-.7a169.87,169.87,0,0,0-210.63-17.19,163.94,163.94,0,0,0-60.39,73.76l1.3-.88H390.11l-.38.82-21.93,47-.93,2h50l-1.4-1.53c-.41,4.88-.6,9.22-.6,13.29a160.31,160.31,0,0,0,.82,16.13l1.4-1.55H392.18l-.38.82-21.94,47-.93,2h60.38l-1.3-.86c26.22,60.52,86.6,99.63,153.82,99.63a168.81,168.81,0,0,0,93.93-28.26l.62-.42V405.55l-2.47,2.82a114.88,114.88,0,0,1-182.69-12.94L490,397.62h122.7l.38-.81,21.93-47.05.94-2H472.12l1.4,1.2a117.65,117.65,0,0,1-1.26-17.13c0-3.87.19-7.8.58-11.69l-1.41,1.28H648.28l.37-.81,21.93-47,.94-2H486.64l1.22,2.12A115.6,115.6,0,0,1,587.49,216.06ZM486.64,274.39H669.3l-1.28-2-21.93,47,1.27-.82H470.16l-.14,1.28c-.39,4-.59,8-.59,12a122.13,122.13,0,0,0,1.29,17.55l.19,1.2H633.77l-1.27-2-21.94,47,1.27-.81H487.42l1.44,2.17A117.72,117.72,0,0,0,676,410.23l-2.47-.93V467l.62-1.17a166,166,0,0,1-92.36,27.79c-66.1,0-125.46-38.44-151.22-97.93l-.37-.84h-59.1l1.29,2,21.93-47.05-1.28.82h25.57l-.16-1.56c-.52-5.31-.8-10.65-.8-15.84,0-4,.19-8.26.59-13.06l.12-1.53H369.08l1.27,2,21.94-47-1.28.82h38.11l.35-.88A161.12,161.12,0,0,1,488.84,201a167.06,167.06,0,0,1,207.1,16.9l-.31-1.62-19,40.86,2.37-.3a117.75,117.75,0,0,0-193.55,15.41l-1.22,2.12Z" transform="translate(-80.91 -168.45)"/></g><g id="Layer_3_copy" data-name="Layer 3 copy"><text class="cls-3" transform="translate(57.58 444.34)">VOORAF OVERBOEKEN</text></g></svg>