<?xml version="1.0" encoding="utf-8"?>
<!-- Generator: Adobe Illustrator 19.2.1, SVG Export Plug-In . SVG Version: 6.00 Build 0)  -->
<svg version="1.1" id="Layer_1" xmlns="http://www.w3.org/2000/svg" xmlns:xlink="http://www.w3.org/1999/xlink" x="0px" y="0px"
	 viewBox="0 0 89 18.3" style="enable-background:new 0 0 89 18.3;" xml:space="preserve">
<style type="text/css">
	.st0{fill:#4D4D4E;}
	.st1{fill:#F69320;}
</style>
<g>
	<g>
		<path class="st0" d="M31.8,7c-0.4-0.4-0.8-0.8-1.3-1.1c-0.5-0.3-1.2-0.4-1.9-0.4c-0.4,0-0.7,0-1,0.1c-0.3,0.1-0.6,0.2-0.9,0.3
			l1.4-6l-3.6,0.6l-4,16.9c0.4,0.2,0.9,0.4,1.4,0.5c0.5,0.1,1,0.2,1.4,0.3c0.4,0.1,0.8,0.1,1.2,0.1c0.3,0,0.6,0,0.7,0
			c1.1,0,2.1-0.2,3-0.6c0.9-0.4,1.7-1,2.4-1.7c0.7-0.7,1.2-1.5,1.6-2.5c0.4-1,0.6-2,0.6-3c0-0.7-0.1-1.3-0.3-1.9
			C32.4,8,32.1,7.5,31.8,7z M29.1,12.5c-0.2,0.6-0.5,1.1-0.8,1.5c-0.3,0.4-0.8,0.8-1.2,1.1c-0.5,0.3-1,0.4-1.5,0.4
			c-0.2,0-0.3,0-0.4,0c-0.1,0-0.2,0-0.3,0c-0.1,0-0.1,0-0.2,0c-0.1,0-0.1,0-0.2,0L25.9,9c0.3-0.2,0.6-0.4,0.9-0.5
			c0.3-0.1,0.6-0.1,0.8-0.1c0.7,0,1.1,0.2,1.4,0.6c0.2,0.4,0.4,1,0.4,1.7C29.4,11.4,29.3,12,29.1,12.5z M33.1,18h3.4l2.9-12.2H36
			L33.1,18z M36.9,3.9c0.4,0.3,0.8,0.4,1.3,0.4c0.3,0,0.6-0.1,0.9-0.2c0.3-0.1,0.5-0.3,0.7-0.5c0.2-0.2,0.4-0.5,0.5-0.7
			c0.1-0.3,0.2-0.6,0.2-0.9c0-0.6-0.2-1-0.6-1.3c-0.4-0.3-0.8-0.4-1.3-0.4c-0.3,0-0.6,0.1-0.9,0.2c-0.3,0.1-0.5,0.3-0.7,0.5
			c-0.2,0.2-0.4,0.5-0.5,0.7c-0.1,0.3-0.2,0.6-0.2,0.9C36.3,3.2,36.5,3.6,36.9,3.9z M44.4,8.6h3.8l0.7-2.8h-3.8L46,2.2l-3.6,0.6
			l-2.3,9.6c-0.2,0.8-0.3,1.5-0.3,2.2c0,0.7,0.1,1.3,0.3,1.9c0.2,0.5,0.7,1,1.2,1.3c0.6,0.3,1.4,0.5,2.5,0.5c0.7,0,1.4-0.1,1.9-0.2
			c0.5-0.1,1-0.3,1.5-0.4L47,15c-0.4,0.1-0.7,0.2-1,0.3c-0.3,0.1-0.7,0.1-1.1,0.1c-0.4,0-0.8-0.1-1-0.2c-0.2-0.1-0.4-0.3-0.5-0.5
			c-0.1-0.2-0.1-0.5-0.1-0.8c0-0.3,0.1-0.6,0.2-1L44.4,8.6z M56,8.4c0.5,0,0.9,0,1.2,0.2c0.3,0.1,0.6,0.2,1,0.3l1.2-2.7
			c-0.4-0.2-0.9-0.4-1.5-0.5c-0.5-0.1-1.2-0.2-1.9-0.2c-1.1,0-2.1,0.2-3,0.6c-0.9,0.4-1.7,1-2.3,1.6c-0.6,0.7-1.1,1.5-1.5,2.4
			c-0.3,0.9-0.5,1.9-0.5,3c0,0.7,0.1,1.4,0.3,2c0.2,0.6,0.5,1.2,0.9,1.7c0.4,0.5,1,0.8,1.6,1.1c0.7,0.3,1.5,0.4,2.4,0.4
			c0.7,0,1.3-0.1,1.9-0.2c0.5-0.1,1-0.3,1.4-0.5l-0.3-2.8c-0.3,0.1-0.7,0.3-1.1,0.3c-0.4,0.1-0.8,0.1-1.3,0.1
			c-0.9,0-1.5-0.2-1.9-0.7c-0.3-0.5-0.5-1.1-0.5-1.9c0-1.3,0.3-2.4,1-3.2C54,8.8,54.9,8.4,56,8.4z M69.5,6.9c-0.4-0.4-0.9-0.8-1.5-1
			c-0.6-0.2-1.3-0.4-2.1-0.4c-1.1,0-2.1,0.2-2.9,0.7c-0.8,0.5-1.6,1.1-2.1,1.8c-0.6,0.7-1,1.6-1.3,2.5c-0.3,0.9-0.4,1.9-0.4,2.8
			c0,0.7,0.1,1.4,0.3,2c0.2,0.6,0.5,1.1,0.9,1.6c0.4,0.4,0.9,0.8,1.5,1c0.6,0.2,1.3,0.4,2.1,0.4c1.1,0,2.1-0.2,3-0.7
			c0.9-0.5,1.6-1.1,2.1-1.8c0.6-0.7,1-1.6,1.3-2.5c0.3-0.9,0.4-1.9,0.4-2.8c0-0.7-0.1-1.4-0.3-2C70.2,7.9,69.9,7.3,69.5,6.9z
			 M67.1,12.4c-0.1,0.5-0.3,1-0.6,1.5c-0.3,0.4-0.6,0.8-1,1.1c-0.4,0.3-0.8,0.4-1.3,0.4c-0.6,0-1.1-0.2-1.3-0.6
			c-0.2-0.4-0.4-1-0.4-1.8c0-0.5,0.1-1,0.2-1.5c0.1-0.5,0.3-1,0.6-1.5c0.3-0.4,0.6-0.8,1-1.1c0.4-0.3,0.8-0.4,1.3-0.4
			c0.6,0,1.1,0.2,1.3,0.6c0.2,0.4,0.4,1,0.4,1.8C67.3,11.3,67.2,11.8,67.1,12.4z M74.8,3.9c0.4,0.3,0.8,0.4,1.3,0.4
			c0.3,0,0.6-0.1,0.9-0.2c0.3-0.1,0.5-0.3,0.7-0.5c0.2-0.2,0.4-0.5,0.5-0.7c0.1-0.3,0.2-0.6,0.2-0.9c0-0.6-0.2-1-0.6-1.3
			c-0.4-0.3-0.8-0.4-1.3-0.4c-0.3,0-0.6,0.1-0.9,0.2c-0.3,0.1-0.5,0.3-0.7,0.5c-0.2,0.2-0.4,0.5-0.5,0.7c-0.1,0.3-0.2,0.6-0.2,0.9
			C74.2,3.2,74.4,3.6,74.8,3.9z M73.9,5.8L71,18h3.4l2.9-12.2H73.9z M88.3,7.1c-0.7-1.1-1.9-1.6-3.7-1.6c-0.6,0-1.2,0-1.6,0.1
			c-0.5,0.1-0.9,0.1-1.3,0.2c-0.4,0.1-0.7,0.2-1.1,0.3c-0.3,0.1-0.6,0.2-0.9,0.3L77,18h3.4l2.2-9.4c0.5-0.1,0.9-0.1,1.4-0.1
			c0.5,0,0.8,0.1,1,0.3c0.2,0.2,0.4,0.4,0.4,0.7c0.1,0.3,0.1,0.6,0,1c-0.1,0.4-0.1,0.8-0.2,1.2L83.7,18h3.4l1.6-6.6
			C89.1,9.6,89,8.1,88.3,7.1z"/>
	</g>
</g>
<g>
	<g>
		<path class="st1" d="M9,6.2l-0.5,2c0.6,0.1,2.3,0.7,2.6-0.4C11.4,6.7,9.6,6.4,9,6.2z M8.3,9.3l-0.5,2.2c0.7,0.2,2.8,0.8,3.1-0.4
			C11.1,9.8,9,9.4,8.3,9.3z M11.3,0.3C6.4-0.9,1.5,2,0.3,6.9C-0.9,11.9,2,16.8,6.9,18c4.9,1.2,9.8-1.8,11-6.7
			C19.1,6.5,16.2,1.5,11.3,0.3z M13.1,7.9c-0.1,0.9-0.6,1.3-1.3,1.5c0.9,0.5,1.3,1.2,0.9,2.4c-0.5,1.5-1.8,1.7-3.5,1.4l-0.4,1.7
			l-1-0.3l0.4-1.6c-0.3-0.1-0.5-0.1-0.8-0.2L7,14.3l-1-0.3l0.4-1.7c-0.2-0.1-0.5-0.1-0.7-0.2l-1.3-0.3l0.5-1.2c0,0,0.7,0.2,0.7,0.2
			C5.9,11,6,10.8,6.1,10.7l0.7-2.6c0,0,0.1,0,0.1,0c0,0-0.1,0-0.1,0l0.5-1.9c0-0.2-0.1-0.5-0.5-0.6c0,0-0.7-0.2-0.7-0.2l0.3-1.1
			l1.4,0.3l0,0c0.2,0.1,0.4,0.1,0.6,0.2l0.4-1.7l1,0.3L9.3,5.1c0.3,0.1,0.5,0.1,0.8,0.2l0.4-1.6l1,0.3l-0.4,1.7
			C12.4,6,13.3,6.6,13.1,7.9z"/>
	</g>
</g>
</svg>
