<?xml version="1.0" encoding="UTF-8"?>
<svg width="61px" height="39px" viewBox="0 0 61 39" version="1.1" xmlns="http://www.w3.org/2000/svg" xmlns:xlink="http://www.w3.org/1999/xlink">
    <!-- Generator: Sketch 49 (51002) - http://www.bohemiancoding.com/sketch -->
    <title>Creditcard big</title>
    <desc>Created with Sketch.</desc>
    <defs></defs>
    <g id="CC-picto-generiek" stroke="none" stroke-width="1" fill="none" fill-rule="evenodd">
        <g id="Creditcard-big">
            <path d="M57.3214704,0.401785714 L3.34821429,0.401785714 C1.87504185,0.401785714 0.66968471,1.60714286 0.66968471,3.08031529 L0.66968471,35.8927734 C0.66968471,37.3660714 1.87504185,38.5714286 3.34821429,38.5714286 C8.08234127,38.5714286 11.6329365,38.5714286 14,38.5714286 C23.6269934,38.5714286 38.0674836,38.5714286 57.3214704,38.5714286 C58.7946429,38.5714286 60,37.3660714 60,35.892899 L60,3.08031529 C60,1.60714286 58.7946429,0.401785714 57.3214704,0.401785714 Z" id="Shape" fill="#495A79" fill-rule="nonzero"></path>
            <path d="M57.5179408,0 L3.54468471,0 C2.47329799,0 1.40178571,0.677150631 1,1.76074401 C4.34825614,11.5123226 17.4732143,32.7760967 46.2679408,38.5999985 L57.5179408,38.5999985 C58.9911133,38.5999985 60.1964704,37.3810512 60.1964704,35.891269 L60.1964704,2.7087295 C60.1964704,1.21894732 58.9911133,0 57.5179408,0 Z" id="Shape" fill="#949FB3" fill-rule="nonzero"></path>
            <path d="M57,17.7053571 C57,15.6184006 56.1883696,13.6474224 54.7970652,12.1401398 L54.5652174,11.9082919 C53.0579348,10.5169876 51.0869565,9.70535714 49,9.70535714 C48.5361957,9.70535714 47.9565217,9.70535714 47.4927174,9.8213354 C45.9854348,10.1691615 44.5941304,10.8648137 43.4347826,11.9082919 L43.2029348,12.1401398 C41.6956522,13.6474224 41,15.6184006 41,17.7053571 C41,19.7923137 41.8116304,21.7632919 43.2029348,23.2705745 L43.4347826,23.5024224 C44.9420652,24.8937267 46.9130435,25.7053571 49,25.7053571 C49.4638043,25.7053571 50.0434783,25.7053571 50.5072826,25.5893789 C50.8551087,25.4734006 51.0869565,25.4734006 51.4347826,25.3575311 C52.5942391,25.009705 53.6377174,24.3140528 54.5652174,23.5024224 L54.7970652,23.2705745 C56.1883696,21.7634006 57,19.7923137 57,17.7053571 Z M52.826087,17.3575311 C52.826087,16.082205 52.5942391,14.8067702 52.3622826,13.7632919 C53.0579348,13.4154658 53.6376087,13.0676398 54.101413,12.6038354 C55.3767391,13.8791615 56.0723913,15.6182919 56.1883696,17.3574224 L52.826087,17.3574224 L52.826087,17.3575311 Z M49.2318478,10.2851398 C50.1593478,10.5169876 50.9709783,11.6764441 51.5506522,13.2995963 C50.855,13.5314441 50.0433696,13.7634006 49.2318478,13.7634006 L49.2318478,10.2851398 Z M48.5361957,10.2851398 L48.5361957,13.7634006 C47.7245652,13.7634006 46.9130435,13.5315528 46.2173913,13.2995963 C46.7970652,11.6764441 47.6086957,10.5169876 48.5361957,10.2851398 Z M48.5361957,14.5749224 L48.5361957,17.3575311 L45.5217391,17.3575311 C45.5217391,16.1980745 45.753587,15.0387267 45.9855435,14.111118 C46.7970652,14.3430745 47.6086957,14.4590528 48.5361957,14.5749224 Z M48.5361957,18.0531832 L48.5361957,20.8357919 C47.6086957,20.8357919 46.7970652,21.0676398 45.9854348,21.2995963 C45.753587,20.256118 45.5216304,19.2126398 45.5216304,18.0531832 L48.5361957,18.0531832 Z M48.5361957,21.4155745 L48.5361957,24.8938354 C47.6086957,24.6619876 46.7970652,23.5025311 46.2173913,21.8793789 C46.9130435,21.6474224 47.7246739,21.5314441 48.5361957,21.4155745 Z M49.2318478,25.009705 L49.2318478,21.5314441 C50.0434783,21.5314441 50.855,21.7632919 51.5506522,21.9952484 C50.9709783,23.6184006 50.1594565,24.7778571 49.2318478,25.009705 Z M49.2318478,20.7199224 L49.2318478,17.9373137 L52.2463043,17.9373137 C52.2463043,19.0967702 52.0144565,20.256118 51.7825,21.1837267 C50.9709783,20.9517702 50.0434783,20.8357919 49.2318478,20.7199224 Z M49.2318478,17.3575311 L49.2318478,14.5749224 C50.1593478,14.5749224 50.9709783,14.3430745 51.7826087,14.111118 C52.0144565,15.1545963 52.246413,16.1980745 52.246413,17.3575311 L49.2318478,17.3575311 Z M50.7391304,10.5169876 C51.7826087,10.7488354 52.826087,11.328618 53.6377174,12.0242702 C53.173913,12.3720963 52.7102174,12.7199224 52.1304348,13.0677484 C51.7826087,12.0242702 51.3188043,11.0966615 50.7391304,10.5169876 Z M47.0290217,10.5169876 C46.4493478,11.0966615 45.9855435,12.0242702 45.6377174,13.0677484 C45.0580435,12.8359006 44.5942391,12.4880745 44.1304348,12.0242702 C44.9420652,11.328618 45.8695652,10.8648137 47.0290217,10.5169876 Z M45.4057609,13.7634006 C45.173913,14.8068789 44.9419565,16.082205 44.9419565,17.3576398 L41.5796739,17.3576398 C41.6956522,15.5025311 42.3913043,13.8793789 43.6666304,12.6040528 C44.1304348,13.0677484 44.7101087,13.4155745 45.4057609,13.7634006 Z M44.826087,18.0531832 C44.826087,19.3285093 45.0579348,20.6039441 45.2898913,21.6474224 C44.5942391,21.9952484 44.0145652,22.3430745 43.5507609,22.8068789 C42.2754348,21.5315528 41.5797826,19.7924224 41.4638043,18.0532919 L44.826087,18.0532919 L44.826087,18.0531832 Z M47.0290217,24.7778571 C45.9855435,24.5460093 44.9420652,23.9662267 44.1304348,23.2705745 C44.5942391,22.9227484 45.0579348,22.5749224 45.6377174,22.2270963 C45.8695652,23.2705745 46.4492391,24.1981832 47.0290217,24.7778571 Z M50.7391304,24.7778571 C51.3188043,24.1981832 51.7826087,23.2705745 52.1304348,22.2270963 C52.7101087,22.4589441 53.173913,22.8067702 53.6377174,23.2705745 C52.826087,23.9662267 51.898587,24.5460093 50.7391304,24.7778571 Z M52.3622826,21.5314441 C52.5941304,20.4879658 52.826087,19.2126398 52.826087,17.937205 L56.1883696,17.937205 C56.0723913,19.7923137 55.3767391,21.4154658 54.101413,22.6907919 C53.6377174,22.2270963 53.0579348,21.8792702 52.3622826,21.5314441 Z" id="Shape" fill="#495A79" fill-rule="nonzero"></path>
            <g id="Group" transform="translate(6.000000, 29.000000)" fill="#EBEAED" fill-rule="nonzero">
                <path d="M8.7304269,0.0418108259 L1.63225446,0.0418108259 C0.694712612,0.0418108259 0.0251116071,0.845382254 0.0251116071,1.64895368 C0.0251116071,2.58649554 0.828683036,3.25609654 1.63225446,3.25609654 L8.7304269,3.25609654 C9.66796875,3.25609654 10.3375698,2.45252511 10.3375698,1.64895368 C10.4715402,0.845382254 9.66796875,0.0418108259 8.7304269,0.0418108259 Z" id="Shape"></path>
                <path d="M21.4537249,0.0418108259 L14.3555525,0.0418108259 C13.4180106,0.0418108259 12.7484096,0.845382254 12.7484096,1.64895368 C12.7484096,2.58649554 13.551981,3.25609654 14.3555525,3.25609654 L21.4537249,3.25609654 C22.3912667,3.25609654 23.0608677,2.45252511 23.0608677,1.64895368 C23.1947126,0.845382254 22.3911412,0.0418108259 21.4537249,0.0418108259 Z" id="Shape"></path>
                <path d="M34.1768973,0.0418108259 L27.0787249,0.0418108259 C26.141183,0.0418108259 25.471582,0.845382254 25.471582,1.64895368 C25.471582,2.58649554 26.2751535,3.25609654 27.0787249,3.25609654 L34.1768973,3.25609654 C35.1144392,3.25609654 35.7840402,2.45252511 35.7840402,1.64895368 C35.9180106,0.845382254 35.1144392,0.0418108259 34.1768973,0.0418108259 Z" id="Shape"></path>
                <path d="M46.9000698,0.0418108259 L39.8018973,0.0418108259 C38.8643555,0.0418108259 38.1947545,0.845382254 38.1947545,1.64895368 C38.1947545,2.58649554 38.9983259,3.25609654 39.8018973,3.25609654 L46.9000698,3.25609654 C47.8376116,3.25609654 48.5072126,2.45252511 48.5072126,1.64895368 C48.641183,0.845382254 47.8376116,0.0418108259 46.9000698,0.0418108259 Z" id="Shape"></path>
            </g>
            <path d="M12.762207,5.99414062 L12.762207,5.91894531 C12.7246094,5.05957031 12.074707,4.49023438 11.1240234,4.49023438 C9.71679688,4.49023438 8.62646484,5.9296875 8.62646484,7.83642578 C8.62646484,9.02880859 9.27636719,9.76464844 10.3183594,9.76464844 C11.1992188,9.76464844 11.956543,9.26513672 12.2089844,8.5078125 L13.8149414,8.5078125 C13.4765625,10.140625 12.0532227,11.1987305 10.1787109,11.1987305 C8.234375,11.1987305 6.96679688,9.92041016 6.96679688,7.94921875 C6.96679688,5.08642578 8.75537109,3.05078125 11.2260742,3.05078125 C13.0039062,3.05078125 14.3520508,4.22705078 14.3520508,5.76318359 C14.3520508,5.84375 14.3520508,5.91357422 14.3413086,5.99414062 L12.762207,5.99414062 Z M14.5832656,11 L15.8454727,5.07568359 L17.3654922,5.07568359 L17.1989883,5.89208984 L17.295668,5.89208984 C17.6179336,5.30664062 18.1335586,4.97900391 18.7673477,4.97900391 C19.0681289,4.97900391 19.3474258,5.02197266 19.530043,5.10791016 L19.2185195,6.54736328 C18.9768203,6.45068359 18.6008437,6.38623047 18.3161758,6.38623047 C17.5319961,6.38623047 17.0485977,6.83740234 16.8552383,7.734375 L16.151625,11 L14.5832656,11 Z M21.377957,7.40673828 L23.9507109,7.40673828 C23.956082,7.37451172 23.9668242,7.27246094 23.9668242,7.20263672 C23.9668242,6.61181641 23.5586211,6.14990234 22.8711211,6.14990234 C22.1513945,6.14990234 21.5820586,6.65478516 21.377957,7.40673828 Z M22.350125,11.1289062 C20.8193633,11.1289062 19.7290312,10.1889648 19.7290312,8.58300781 C19.7290312,6.41308594 21.0395781,4.94677734 22.9355742,4.94677734 C24.3481719,4.94677734 25.4331328,5.91357422 25.4331328,7.42822266 C25.4331328,7.66992188 25.3901641,8.11572266 25.3418242,8.39501953 L21.206082,8.39501953 C21.206082,8.43798828 21.2007109,8.51855469 21.2007109,8.56152344 C21.2007109,9.47460938 21.775418,9.90966797 22.4468047,9.90966797 C23.0483672,9.90966797 23.440457,9.66796875 23.6177031,9.29736328 L25.1216094,9.29736328 C24.8530547,10.3876953 23.8110625,11.1289062 22.350125,11.1289062 Z M28.4734297,11.0913086 C27.2971602,11.0913086 26.4216719,10.2265625 26.4216719,8.78173828 C26.4216719,6.57958984 27.7375898,4.97900391 29.4241133,4.97900391 C30.2996016,4.97900391 30.9172773,5.45703125 31.1052656,6.08544922 L31.2019453,6.08544922 L31.9001875,2.81445312 L33.4685469,2.81445312 L31.7336836,11 L30.2136641,11 L30.3855391,10.1782227 L30.2888594,10.1782227 C29.8806562,10.7314453 29.2629805,11.0913086 28.4734297,11.0913086 Z M29.1716719,9.80224609 C30.1169844,9.80224609 30.8635664,8.78710938 30.8635664,7.56787109 C30.8635664,6.75683594 30.3909102,6.30566406 29.7248945,6.30566406 C28.7903242,6.30566406 28.0437422,7.24560547 28.0437422,8.51318359 C28.0437422,9.31884766 28.5325117,9.80224609 29.1716719,9.80224609 Z M33.372125,11 L34.6289609,5.07568359 L36.1919492,5.07568359 L34.9351133,11 L33.372125,11 Z M35.7622617,4.24853516 C35.203668,4.24853516 34.8384336,3.91552734 34.8384336,3.48046875 C34.8384336,3.02392578 35.203668,2.66943359 35.7622617,2.66943359 C36.3262266,2.66943359 36.6860898,2.99707031 36.6860898,3.43212891 C36.6860898,3.88867188 36.3262266,4.24853516 35.7622617,4.24853516 Z M38.9905469,11.0214844 C37.9861523,11.0214844 37.3093945,10.5595703 37.3093945,9.75927734 C37.3093945,9.60888672 37.3308789,9.42626953 37.3684766,9.24902344 L37.9915234,6.36474609 L37.0408398,6.36474609 L37.2986523,5.13476562 L38.2439648,5.13476562 L38.5554883,3.66845703 L40.1238477,3.66845703 L39.8123242,5.13476562 L41.0745312,5.13476562 L40.8113477,6.36474609 L39.5598828,6.36474609 L39.0012891,8.9375 C38.9744336,9.07177734 38.9583203,9.18994141 38.9583203,9.28125 C38.9583203,9.64648438 39.1892773,9.80761719 39.6135937,9.80761719 C39.7854687,9.80761719 39.9519727,9.796875 40.0808789,9.77539062 L39.8391797,10.9516602 C39.6619336,10.9946289 39.3450391,11.0214844 38.9905469,11.0214844 Z" id="Credit" fill="#FFFFFF"></path>
            <path d="M13.5151071,22.7899652 L6.52737594,22.7899652 C6.19776598,22.7899652 6,22.5262772 6,22.2625893 L6,16.5273759 C6,16.197766 6.26368797,16 6.52737594,16 L13.4491851,16 C13.7787951,16 13.9765611,16.263688 13.9765611,16.5273759 L13.9765611,22.2625893 C14.0424831,22.5262772 13.7787951,22.7899652 13.5151071,22.7899652 Z" id="Shape" fill="#FFD05B" fill-rule="nonzero"></path>
        </g>
    </g>
</svg>