<?xml version="1.0" encoding="UTF-8" standalone="no"?>
<!-- Generator: Adobe Illustrator 19.0.0, SVG Export Plug-In . SVG Version: 6.00 Build 0)  -->

<svg
   xmlns:dc="http://purl.org/dc/elements/1.1/"
   xmlns:cc="http://creativecommons.org/ns#"
   xmlns:rdf="http://www.w3.org/1999/02/22-rdf-syntax-ns#"
   xmlns:svg="http://www.w3.org/2000/svg"
   xmlns="http://www.w3.org/2000/svg"
   xmlns:sodipodi="http://sodipodi.sourceforge.net/DTD/sodipodi-0.dtd"
   xmlns:inkscape="http://www.inkscape.org/namespaces/inkscape"
   version="1.1"
   id="Layer_1"
   x="0px"
   y="0px"
   viewBox="0 0 490.30508 325.33511"
   xml:space="preserve"
   width="490.30508"
   height="325.33511"
   sodipodi:docname="giftcard.svg"
   inkscape:version="0.92.2 5c3e80d, 2017-08-06"><metadata
     id="metadata85"><rdf:RDF><cc:Work
         rdf:about=""><dc:format>image/svg+xml</dc:format><dc:type
           rdf:resource="http://purl.org/dc/dcmitype/StillImage" /><dc:title></dc:title></cc:Work></rdf:RDF></metadata><defs
     id="defs83" /><sodipodi:namedview
     pagecolor="#ffffff"
     bordercolor="#666666"
     borderopacity="1"
     objecttolerance="10"
     gridtolerance="10"
     guidetolerance="10"
     inkscape:pageopacity="0"
     inkscape:pageshadow="2"
     inkscape:window-width="1085"
     inkscape:window-height="777"
     id="namedview81"
     showgrid="false"
     fit-margin-top="0"
     fit-margin-left="0"
     fit-margin-right="0"
     fit-margin-bottom="0"
     inkscape:zoom="0.921875"
     inkscape:cx="318.87236"
     inkscape:cy="95.138378"
     inkscape:window-x="1447"
     inkscape:window-y="2"
     inkscape:window-maximized="0"
     inkscape:current-layer="Layer_1" /><g
     id="g6"
     transform="matrix(0.95762712,0,0,0.92590724,0,-74.36424)"
     style="fill:#008000"><g
       id="g4"
       style="fill:#008000"><path
         d="M 55.374,80.315 C 24.792,80.315 0,105.107 0,135.689 v 69.794 h 71.851 c -6.883,-9.223 -10.606,-20.366 -10.606,-32.082 -10e-4,-14.367 5.593,-27.874 15.753,-38.032 10.158,-10.158 23.664,-15.753 38.031,-15.753 11.718,0 22.861,3.724 32.083,10.607 V 80.315 Z"
         id="path2"
         inkscape:connector-curvature="0"
         style="fill:#008000" /></g></g><g
     id="g12"
     transform="matrix(0.95762712,0,0,0.92590724,0,-74.36424)"
     style="fill:#008000"><g
       id="g10"
       style="fill:#008000"><path
         d="m 127.792,160.62 c -3.41,-3.407 -7.943,-5.283 -12.764,-5.283 -4.824,0 -9.361,1.879 -12.772,5.29 -3.413,3.413 -5.29,7.948 -5.29,12.773 0,4.824 1.879,9.361 5.29,12.772 3.972,3.773 20.226,9.389 39.683,14.145 -4.76,-19.464 -10.375,-35.718 -14.147,-39.697 z"
         id="path8"
         inkscape:connector-curvature="0"
         style="fill:#008000" /></g></g><g
     id="g18"
     transform="matrix(0.95762712,0,0,0.92590724,0,-74.36424)"
     style="fill:#008000"><g
       id="g16"
       style="fill:#008000"><path
         d="m 115.029,327.047 c -13.775,10e-4 -27.546,-5.241 -38.032,-15.728 -10.159,-10.158 -15.754,-23.666 -15.754,-38.032 0,-11.717 3.723,-22.86 10.606,-32.083 H 0 V 376.31 c 0,30.582 24.792,55.374 55.374,55.374 h 91.738 V 316.451 c -9.485,7.058 -20.784,10.596 -32.083,10.596 z"
         id="path14"
         inkscape:connector-curvature="0"
         style="fill:#008000" /></g></g><g
     id="g24"
     transform="matrix(0.95762712,0,0,0.92590724,0,-74.36424)"><g
       id="g22"><path
         d="M 456.627,80.316 H 182.833 v 49.908 c 9.223,-6.884 20.365,-10.607 32.082,-10.607 14.366,0 27.873,5.595 38.032,15.754 19.089,19.089 20.795,49.07 5.133,70.114 H 512 V 135.69 c 0,-30.582 -24.792,-55.374 -55.373,-55.374 z"
         id="path20"
         inkscape:connector-curvature="0"
         style="fill:#0d8f20" /></g></g><g
     id="g30"
     transform="matrix(0.95762712,0,0,0.92590724,0,-74.36424)"
     style="fill:#0d8f20;fill-opacity:1"><g
       id="g28"
       style="fill:#0d8f20;fill-opacity:1"><path
         d="m 227.689,160.627 c -3.411,-3.41 -7.948,-5.289 -12.773,-5.289 -4.824,0 -9.362,1.879 -12.773,5.29 -3.772,3.972 -9.388,20.226 -14.143,39.683 19.465,-4.759 35.719,-10.375 39.699,-14.147 7.032,-7.044 7.028,-18.496 -0.01,-25.537 z"
         id="path26"
         inkscape:connector-curvature="0"
         style="fill:#0d8f20;fill-opacity:1" /></g></g><g
     id="g36"
     transform="matrix(0.95762712,0,0,0.92590724,0,-74.36424)"><g
       id="g34"><path
         d="m 102.245,260.525 c -3.406,3.41 -5.281,7.943 -5.281,12.764 0,4.824 1.879,9.361 5.29,12.772 7.043,7.042 18.503,7.042 25.547,0 3.763,-3.962 9.376,-20.214 14.137,-39.682 -19.461,4.759 -35.714,10.373 -39.693,14.146 z"
         id="path32"
         inkscape:connector-curvature="0"
         style="fill:#0d8f20" /></g></g><g
     id="g42"
     transform="matrix(0.95762712,0,0,0.92590724,0,-74.36424)"
     style="fill:#0d8f20;fill-opacity:1"><g
       id="g40"
       style="fill:#0d8f20;fill-opacity:1"><path
         d="m 227.689,260.515 c -3.974,-3.772 -20.226,-9.389 -39.683,-14.143 4.759,19.465 10.375,35.72 14.147,39.699 7.044,7.033 18.495,7.032 25.536,-0.009 7.043,-7.044 7.043,-18.504 0,-25.547 z"
         id="path38"
         inkscape:connector-curvature="0"
         style="fill:#0d8f20;fill-opacity:1" /></g></g><g
     id="g48"
     transform="matrix(0.95762712,0,0,0.92590724,0,-74.36424)"
     style="fill:#0d8f20;fill-opacity:1"><g
       id="g46"
       style="fill:#0d8f20;fill-opacity:1"><path
         d="m 258.079,241.204 c 15.663,21.044 13.956,51.026 -5.132,70.115 -10.485,10.486 -24.258,15.728 -38.032,15.728 -11.301,0 -22.598,-3.536 -32.082,-10.595 V 431.684 H 456.627 C 487.209,431.684 512,406.892 512,376.31 V 241.204 Z m 159.628,134.574 c -16.906,0 -30.029,-11.232 -36.177,-25.655 h -11.704 l 4.729,-11.822 h 3.665 c -0.236,-1.655 -0.236,-3.31 -0.354,-5.083 h -8.039 l 4.729,-11.822 h 4.729 c 4.256,-16.433 18.206,-30.738 39.131,-30.738 14.897,0 26.719,7.329 32.038,18.324 l -17.615,12.532 c -2.72,-8.158 -9.695,-10.404 -14.897,-10.404 -7.211,0 -11.822,4.492 -14.423,10.286 h 22.226 l -4.729,11.822 h -19.743 c 0,1.773 0.118,3.428 0.355,5.083 h 20.807 l -4.729,11.822 h -10.759 c 2.837,3.192 6.619,5.202 11.232,5.202 5.319,0 11.94,-2.719 14.305,-10.286 l 18.798,11.231 c -4.728,12.415 -20.215,19.508 -33.575,19.508 z"
         id="path44"
         inkscape:connector-curvature="0"
         style="fill:#0d8f20;fill-opacity:1" /></g></g><g
     id="g50"
     transform="translate(-3.7288138e-7,-0.04381298)" /><g
     id="g52"
     transform="translate(-3.7288138e-7,-0.04381298)" /><g
     id="g54"
     transform="translate(-3.7288138e-7,-0.04381298)" /><g
     id="g56"
     transform="translate(-3.7288138e-7,-0.04381298)" /><g
     id="g58"
     transform="translate(-3.7288138e-7,-0.04381298)" /><g
     id="g60"
     transform="translate(-3.7288138e-7,-0.04381298)" /><g
     id="g62"
     transform="translate(-3.7288138e-7,-0.04381298)" /><g
     id="g64"
     transform="translate(-3.7288138e-7,-0.04381298)" /><g
     id="g66"
     transform="translate(-3.7288138e-7,-0.04381298)" /><g
     id="g68"
     transform="translate(-3.7288138e-7,-0.04381298)" /><g
     id="g70"
     transform="translate(-3.7288138e-7,-0.04381298)" /><g
     id="g72"
     transform="translate(-3.7288138e-7,-0.04381298)" /><g
     id="g74"
     transform="translate(-3.7288138e-7,-0.04381298)" /><g
     id="g76"
     transform="translate(-3.7288138e-7,-0.04381298)" /><g
     id="g78"
     transform="translate(-3.7288138e-7,-0.04381298)" /></svg>