<?xml version="1.0" encoding="utf-8"?>
<!-- Generator: Adobe Illustrator 19.2.1, SVG Export Plug-In . SVG Version: 6.00 Build 0)  -->
<svg version="1.1" id="Layer_1" xmlns="http://www.w3.org/2000/svg" xmlns:xlink="http://www.w3.org/1999/xlink" x="0px" y="0px"
	 viewBox="0 0 75 32" style="enable-background:new 0 0 75 32;" xml:space="preserve">
<style type="text/css">
	.st0{fill:#203F7A;}
	.st1{fill:#EF494F;}
</style>
<g>
	<g>
		<path class="st0" d="M69.2,0H5.8C2.6,0,0,2.6,0,5.7v20.5C0,29.4,2.6,32,5.8,32h63.4c3.2,0,5.8-2.6,5.8-5.7V5.7
			C75,2.6,72.4,0,69.2,0z M39.2,29.7H6c-2,0-3.6-1.6-3.6-3.6V5.9C2.4,4,4,2.4,6,2.4h33.2V29.7z M47,20.2c-1,0-2-0.4-2.6-1.3h0v4.4
			h-2.8V12h2.6v1.5h0c0.6-1.1,1.7-1.6,3-1.6c2.2,0,3.5,2.1,3.5,4.1C50.7,18.2,49.4,20.2,47,20.2z M57.6,20c0-0.4-0.1-0.8-0.1-1.3h0
			c-0.6,1-1.4,1.5-2.6,1.5c-1.6,0-3-0.8-3-2.5c0-2.5,2.7-2.7,4.2-2.7c0.5,0,0.9,0,1.3,0.1c0-1.1-0.8-1.4-1.9-1.4
			c-0.9,0-1.8,0.2-2.6,0.6l0-1.9c1-0.4,2-0.6,3.2-0.6c2.1,0,3.9,0.9,3.9,3.3v3c0,0.6,0,1.3,0.2,1.9H57.6z M67.1,19.5
			c-0.8,2-1.4,4-4,4c-0.6,0-1.2-0.1-1.7-0.2l0.2-2.1c0.4,0.1,0.7,0.2,1.1,0.2c0.7,0,1.2-0.4,1.4-1.1L60.8,12h3l1.7,5.3h0l1.7-5.3
			h2.8L67.1,19.5z M54.5,17.5c0,0.6,0.5,0.9,1.2,0.9c1.1,0,1.7-1,1.7-1.9c-0.4,0-0.8,0-1.2,0C55.3,16.4,54.5,16.7,54.5,17.5z
			 M46.1,13.9c-1,0-1.7,0.9-1.7,2.1c0,1.2,0.8,2.1,1.7,2.1c1.1,0,1.7-0.9,1.7-2.2C47.8,14.8,47.2,13.9,46.1,13.9z"/>
	</g>
</g>
<g>
	<g>
		<path class="st1" d="M11.8,13.4L11.8,13.4c-0.6-1-1.6-1.6-2.8-1.6c-2.5,0-3.7,1.8-3.7,4.2c0,2.4,1.4,4,3.6,4
			c1.1,0,2.1-0.4,2.7-1.4h0v0.4c0,1.6-0.9,2.3-2.5,2.3c-1.2,0-1.9-0.2-2.7-0.7l-0.1,2.2c0.7,0.2,1.8,0.5,3.1,0.5
			c3.3,0,4.9-1.1,4.9-4.4V12h-2.5V13.4z M9.8,17.9c-0.8,0-1.6-0.7-1.6-2c0-1.1,0.5-2,1.6-2c1.3,0,1.8,1,1.8,1.9
			C11.6,17,10.8,17.9,9.8,17.9z M16.2,20H19v-8h-2.8V20z M16.2,10.7H19v-2h-2.8V10.7z M23.5,13.4L23.5,13.4l0-1.5h-2.6v8h2.8v-3.4
			c0-1.6,0.7-2.5,2-2.5c0.3,0,0.6,0,0.9,0.1l0.1-2.3c-0.3,0-0.6-0.1-0.9-0.1C24.7,11.8,24,12.4,23.5,13.4z M31.7,11.8
			c-2.7,0-4.7,1.5-4.7,4.2c0,2.7,2,4.2,4.7,4.2c2.7,0,4.7-1.5,4.7-4.2C36.4,13.3,34.3,11.8,31.7,11.8z M31.7,18.3
			c-1.3,0-1.8-1.1-1.8-2.3c0-1.2,0.5-2.3,1.8-2.3c1.3,0,1.8,1.1,1.8,2.3C33.5,17.2,32.9,18.3,31.7,18.3z"/>
	</g>
</g>
</svg>
