<?xml version="1.0" encoding="utf-8"?>
<!-- Generator: Adobe Illustrator 20.1.0, SVG Export Plug-In . SVG Version: 6.00 Build 0)  -->
<svg version="1.1" id="Layer_14" xmlns="http://www.w3.org/2000/svg" xmlns:xlink="http://www.w3.org/1999/xlink" x="0px" y="0px"
	 viewBox="0 0 547.5 474.6" style="enable-background:new 0 0 547.5 474.6;" xml:space="preserve">
<style type="text/css">
	.st0{fill:#FFFFFF;stroke:#000000;stroke-miterlimit:10;}
	.st1{fill:#CC2E74;}
</style>
<path class="st0" d="M475.7,389.5c-60.5,63.7-155.5,59.4-155.5,59.4H24.3V24.5h295.9c0,0,81-3.2,140.4,47.5
	c57.2,48.6,62.6,114.5,62.6,162C524.3,277.2,517.8,345.3,475.7,389.5L475.7,389.5z"/>
<title>idealpro</title>
<path d="M60.6,409.6h89.9V267.5H60.6V409.6z M469.1,46C402.3-3.1,311.4,0,311.4,0H0v474.4h311.4c0,0,96.1,6.3,168.2-53.3
	c58.5-49.1,68-137.9,68-189.1C547.5,181.9,529.7,92,469.1,46L469.1,46z M469.1,385.6C410.6,447.2,318.7,443,318.7,443H32.4V32.4
	h286.3c0,0,78.4-3.1,135.8,46c55.4,47,60.6,110.8,60.6,156.7C516.1,276.9,509.9,342.8,469.1,385.6L469.1,385.6z M105.5,146.3
	c-26.5-0.1-48,21.3-48.1,47.8c0,0.1,0,0.2,0,0.3c0,26.1,21.9,48.1,48.1,48.1c26.5-0.4,47.8-22.2,47.4-48.8
	C152.5,167.7,131.6,146.7,105.5,146.3z"/>
<path class="st1" d="M359.4,203.8h15.7l-8.4-20.9L359.4,203.8z M421.1,153.6H443v67.9h39.7c-2.1-35.5-15.7-87.8-50.2-113.9
	C387.6,72.2,317.6,68,317.6,68H184.9v85.7H210c0,0,28.2,2.1,28.2,42.8c0,41.8-28.2,42.8-28.2,42.8h-25.1v167.1h132.7
	c0,0,78.4,0,125.4-42.8c30.3-28.2,37.6-86.7,39.7-124.3h-60.6v-85.7L421.1,153.6z M317.6,171.4h-47V186h42.8v17.8h-42.8v17.8h47
	v17.8h-64.8v-85.7h64.8L317.6,171.4z M388.6,239.3l-6.2-17.7h-29.3l-6.3,17.8h-23l32.4-85.7h21.9l35.5,85.7L388.6,239.3z
	 M217.3,196.5c0-23-14.6-25.1-14.6-25.1h-17.8v50.2h17.8C202.7,221.6,217.3,221.6,217.3,196.5z"/>
</svg>
