<?xml version="1.0" encoding="UTF-8" standalone="no"?>
<!-- Created with Inkscape (http://www.inkscape.org/) -->

<svg
   xmlns:dc="http://purl.org/dc/elements/1.1/"
   xmlns:cc="http://creativecommons.org/ns#"
   xmlns:rdf="http://www.w3.org/1999/02/22-rdf-syntax-ns#"
   xmlns:svg="http://www.w3.org/2000/svg"
   xmlns="http://www.w3.org/2000/svg"
   xmlns:xlink="http://www.w3.org/1999/xlink"
   xmlns:sodipodi="http://sodipodi.sourceforge.net/DTD/sodipodi-0.dtd"
   xmlns:inkscape="http://www.inkscape.org/namespaces/inkscape"
   width="206.07262mm"
   height="159.80832mm"
   viewBox="0 0 206.07262 159.80832"
   version="1.1"
   id="svg4132"
   inkscape:version="0.92.2 5c3e80d, 2017-08-06"
   sodipodi:docname="klarna_test.svg">
  <defs
     id="defs4126">
    <rect
       rx="5"
       height="64"
       width="96"
       y="0"
       x="0"
       id="path-1" />
  </defs>
  <sodipodi:namedview
     id="base"
     pagecolor="#ffffff"
     bordercolor="#666666"
     borderopacity="1.0"
     inkscape:pageopacity="0.0"
     inkscape:pageshadow="2"
     inkscape:zoom="0.35"
     inkscape:cx="393.71429"
     inkscape:cy="43.428544"
     inkscape:document-units="mm"
     inkscape:current-layer="layer1"
     showgrid="false"
     inkscape:window-width="2560"
     inkscape:window-height="1338"
     inkscape:window-x="1440"
     inkscape:window-y="1"
     inkscape:window-maximized="1"
     fit-margin-top="0"
     fit-margin-left="0"
     fit-margin-right="0"
     fit-margin-bottom="0" />
  <metadata
     id="metadata4129">
    <rdf:RDF>
      <cc:Work
         rdf:about="">
        <dc:format>image/svg+xml</dc:format>
        <dc:type
           rdf:resource="http://purl.org/dc/dcmitype/StillImage" />
        <dc:title></dc:title>
      </cc:Work>
    </rdf:RDF>
  </metadata>
  <g
     inkscape:label="Layer 1"
     inkscape:groupmode="layer"
     id="layer1"
     transform="translate(-1.663095,-0.51547591)">
    <g
       id="Badges"
       transform="matrix(2.1465898,0,0,2.4970051,1.663095,0.51547591)"
       style="fill:none;fill-rule:evenodd;stroke:none;stroke-width:1">
      <g
         transform="translate(-25,-122)"
         id="Logo">
        <g
           transform="translate(25,122)"
           id="Badge-/-xx_xx-/-pay_now-/-standard-/pink">
          <g
             id="BG-/-Radius-5">
            <mask
               fill="white"
               id="mask-2">
              <use
                 id="use4227"
                 xlink:href="#path-1"
                 x="0"
                 y="0"
                 width="100%"
                 height="100%" />
            </mask>
            <g
               id="BG" />
            <g
               mask="url(#mask-2)"
               id="Color-/-Pink"
               style="fill:#eb6f93;fill-rule:evenodd">
              <rect
                 height="64"
                 width="96"
                 y="0"
                 x="0"
                 id="rect4231" />
            </g>
          </g>
          <g
             transform="translate(20,44)"
             id="Logo-/-White-(Clean)-Copy"
             style="fill:#ffffff;fill-rule:nonzero">
            <path
               id="Shape"
               d="M 10.204415,0 H 7.3492274 c 0,2.3323529 -1.0754967,4.4607843 -2.9448124,5.8627451 L 3.2777042,6.7039216 7.6565121,12.643137 H 11.254305 L 7.221192,7.1754902 C 9.1289183,5.2892157 10.204415,2.7401961 10.204415,0 Z"
               inkscape:connector-curvature="0" />
            <rect
               height="12.643137"
               width="2.9192052"
               y="0"
               x="0"
               id="Rectangle-path" />
            <rect
               height="12.643137"
               width="2.7527595"
               y="0"
               x="12.099338"
               id="rect4237" />
            <path
               id="path4239"
               d="m 38.999558,3.6578431 c -1.049889,0 -2.048565,0.3186275 -2.714348,1.2235294 V 3.9 h -2.611921 v 8.743137 H 36.32362 V 8.054902 c 0,-1.3254902 0.896247,-1.9754902 1.971744,-1.9754902 1.152318,0 1.818102,0.6882353 1.818102,1.9627451 V 12.655882 H 42.73819 V 7.0862745 c 0,-2.0392157 -1.626049,-3.4284314 -3.738632,-3.4284314 z"
               inkscape:connector-curvature="0" />
            <path
               id="path4241"
               d="M 23.174393,3.9 V 4.4607843 C 22.431788,3.9509804 21.535541,3.6578431 20.562472,3.6578431 c -2.560706,0 -4.634878,2.0647059 -4.634878,4.6137255 0,2.5490194 2.074172,4.6137254 4.634878,4.6137254 0.973069,0 1.869316,-0.293137 2.611921,-0.802941 v 0.560784 h 2.624724 V 3.9 Z m -2.394261,6.614706 c -1.318763,0 -2.381457,-1.0068629 -2.381457,-2.2431374 0,-1.2362745 1.062694,-2.2431372 2.381457,-2.2431372 1.318764,0 2.381457,1.0068627 2.381457,2.2431372 0,1.2362745 -1.062693,2.2431374 -2.381457,2.2431374 z"
               inkscape:connector-curvature="0" />
            <path
               id="path4243"
               d="M 29.87064,5.0343137 V 3.9 h -2.688742 v 8.743137 h 2.701546 V 8.5647059 c 0,-1.3764706 1.498013,-2.1156863 2.535099,-2.1156863 0.0128,0 0.02561,0 0.02561,0 V 3.9 c -1.062693,0 -2.048565,0.4588235 -2.57351,1.1343137 z"
               inkscape:connector-curvature="0" />
            <path
               id="path4245"
               d="m 50.906843,3.9 v 0.5607843 c -0.742605,-0.5098039 -1.638852,-0.8029412 -2.61192,-0.8029412 -2.560707,0 -4.634879,2.0647059 -4.634879,4.6137255 0,2.5490194 2.074172,4.6137254 4.634879,4.6137254 0.973068,0 1.869315,-0.293137 2.61192,-0.802941 v 0.560784 h 2.624724 V 3.9 Z m -2.39426,6.614706 c -1.318764,0 -2.381457,-1.0068629 -2.381457,-2.2431374 0,-1.2362745 1.062693,-2.2431372 2.381457,-2.2431372 1.318764,0 2.381457,1.0068627 2.381457,2.2431372 0.0128,1.2362745 -1.062693,2.2431374 -2.381457,2.2431374 z"
               inkscape:connector-curvature="0" />
            <path
               id="path4247"
               d="m 56.335541,9.5460784 c -0.909051,0 -1.651656,0.7392156 -1.651656,1.6441176 0,0.904902 0.742605,1.644118 1.651656,1.644118 0.909051,0 1.651656,-0.739216 1.651656,-1.644118 0,-0.917647 -0.742605,-1.6441176 -1.651656,-1.6441176 z"
               inkscape:connector-curvature="0" />
          </g>
          <g
             transform="translate(36,5)"
             id="Icons-/-Pay-now-/-White"
             style="fill:#ffffff;fill-rule:nonzero">
            <path
               id="_Path_"
               d="m 8.5510713,24.745643 c 0.6777228,0.666588 0.6922062,1.754068 0.032476,2.438441 L 8.451109,27.32302 C 7.7908635,27.998268 6.698977,28.01483 6.0122403,27.35379 L 2.1728911,23.549653 C 1.1159092,22.488387 0.96410333,21.180624 1.6367891,20.489655 l 0.1348046,-0.141379 c 0.5543961,-0.570593 1.4581094,-0.630794 2.0885709,-0.134677 0.2997367,0.235866 0.7340761,0.184276 0.9701242,-0.11523 C 5.0663369,19.798864 5.0147071,19.36486 4.7149705,19.128994 3.5284497,18.195308 1.8276724,18.308606 0.77568811,19.39141 l -0.1343088,0.14087 c -1.24607164,1.279883 -0.99566227,3.437086 0.55546019,4.994463 l 3.8497289,3.814345 c 1.2406959,1.194365 3.20201,1.164615 4.3989308,-0.05965 L 9.5813234,28.139017 C 10.763663,26.912529 10.737648,24.95913 9.52028,23.761764 c -0.2719004,-0.267433 -0.7092839,-0.263981 -0.9769235,0.0077 -0.2676396,0.271691 -0.2641856,0.708737 0.00771,0.97617 z"
               inkscape:connector-curvature="0" />
            <path
               id="_Path_2"
               d="M 6.2531614,4.1224225 7.8245027,17.045293 c 0.046017,0.378447 0.3903493,0.647964 0.7690883,0.601982 0.378739,-0.04598 0.6484637,-0.390048 0.6024469,-0.768494 L 7.6198217,3.9158176 7.604239,3.8316571 C 7.3353546,2.7569494 8.0037718,1.5518574 8.8943125,1.3621424 c 0.4991969,-0.1064957 1.0200802,-0.00834 1.4460045,0.2724107 0.425924,0.2807499 0.721235,0.7205921 0.819693,1.220865 l 2.735981,11.6906769 c 0.08689,0.371211 0.458486,0.601754 0.829985,0.514932 0.371498,-0.08682 0.602219,-0.458132 0.51533,-0.829344 L 12.510495,2.5650166 C 12.345756,1.7256934 11.836129,0.96664722 11.101102,0.48215044 10.366075,-0.00234633 9.4671741,-0.17173757 8.6060336,0.01197313 6.9312047,0.3687677 5.8307691,2.3310722 6.2531614,4.1224225 Z"
               inkscape:connector-curvature="0" />
            <path
               id="_Path_3"
               d="M 20.694638,19.307869 23.801665,3.8171284 C 24.162753,2.1496546 23.171098,0.47551642 21.524373,-0.01352447 19.680664,-0.47963114 17.833145,0.606306 17.351841,2.4152323 L 13.911945,14.202135 c -0.106804,0.365987 0.103535,0.749193 0.469805,0.855914 0.36627,0.106722 0.749772,-0.103455 0.856576,-0.469443 L 18.68265,2.7858285 c 0.291385,-1.0943728 1.392892,-1.7418178 2.475687,-1.4684356 0.926647,0.2758109 1.501278,1.2459186 1.290795,2.2181362 L 19.339956,19.036575 c -0.07497,0.373797 0.167504,0.73755 0.54159,0.812466 0.374085,0.07492 0.738119,-0.167375 0.813092,-0.541172 z"
               inkscape:connector-curvature="0" />
            <path
               id="path4253"
               d="m 12.869189,34.231944 c -4.9252428,0 -9.0389187,-3.612809 -9.0389187,-8.746759 0,-0.38123 -0.3092866,-0.690278 -0.6908108,-0.690278 -0.3815243,0 -0.6908108,0.309048 -0.6908108,0.690278 0,5.938901 4.7690798,10.127315 10.4205403,10.127315 0.381525,0 0.690811,-0.309048 0.690811,-0.690278 0,-0.38123 -0.309286,-0.690278 -0.690811,-0.690278 z"
               inkscape:connector-curvature="0" />
            <path
               id="_Path_4"
               d="m 10.432735,22.157043 c -0.107465,0.386858 -0.347889,0.72352 -0.6790563,0.950869 l -0.1476824,0.0983 C 8.8113516,23.740317 7.7373782,23.533147 7.2004119,22.744218 L 4.1800013,18.249459 c -0.8240367,-1.2504 -0.716289,-2.565973 0.07688,-3.109976 l 0.1479335,-0.09847 c 1.017415,-0.589284 1.8818511,-0.142196 2.7704985,1.151472 l 2.5257102,3.759824 c 0.2126371,0.31653 0.6418095,0.400885 0.9585845,0.188412 0.316775,-0.212473 0.401195,-0.641315 0.188558,-0.957845 L 8.3184363,15.417135 C 7.0690699,13.598277 5.5210155,12.797621 3.6745235,13.869848 l -0.1917704,0.126177 c -1.4847535,1.018257 -1.6620973,3.183582 -0.4532117,5.01788 l 3.026133,4.503303 c 0.966824,1.420512 2.8959613,1.792645 4.3190836,0.836104 l 0.1533,-0.102114 c 0.606858,-0.416533 1.04163,-1.025334 1.235964,-1.724908 0.102043,-0.367341 -0.113253,-0.747789 -0.480878,-0.849753 -0.367624,-0.101965 -0.748366,0.113165 -0.850409,0.480506 z"
               inkscape:connector-curvature="0" />
            <path
               id="path4256"
               d="m 15.007113,24.443535 c -1.435419,0.801306 -2.327907,2.310106 -2.438734,4.592456 -0.01849,0.380782 0.275444,0.704444 0.65652,0.72292 0.381076,0.01848 0.704988,-0.275231 0.723478,-0.656013 0.100367,-2.066934 0.904131,-3.182762 2.204138,-3.671738 0.695712,-0.261681 1.452183,-0.313896 2.118589,-0.243028 0.08957,0.0095 0.149078,0.01839 0.173136,0.02287 0.889526,0.165658 1.16028,-1.155095 0.277213,-1.352258 l -5.312432,-1.186111 c -2.486517,-0.68042 -2.861785,-1.600103 -2.401398,-3.13354 0.198796,-0.668155 0.607149,-1.011105 1.223055,-1.147943 0.406641,-0.09034 0.863445,-0.07911 1.297606,-0.0031 0.125516,0.02198 0.213789,0.04287 0.252851,0.05408 l 8.063986,1.881914 c 0.0534,0.01027 0.09103,0.0207 0.156894,0.05052 0.133385,0.0604 0.272253,0.157432 0.40771,0.30206 0.540565,0.577166 0.838826,1.665915 0.687855,3.454226 -0.525966,6.26918 -3.449279,10.16197 -10.377994,10.101105 -0.381509,-0.0034 -0.693503,0.302968 -0.696857,0.684183 -0.0034,0.381215 0.303202,0.692968 0.684712,0.696319 7.786962,0.0684 11.187505,-4.459881 11.766901,-11.365919 0.181479,-2.149694 -0.222163,-3.623122 -1.05585,-4.513255 -0.45968,-0.490803 -0.944772,-0.710451 -1.316895,-0.764537 l -7.972664,-1.862263 c -0.05011,-0.0153 -0.185468,-0.04733 -0.362168,-0.07827 -0.597633,-0.104648 -1.226567,-0.120115 -1.83596,0.01528 -1.081442,0.240266 -1.897447,0.925579 -2.2470263,2.100529 -0.6646444,2.213764 0.045119,3.95321 3.3923343,4.868083 z"
               inkscape:connector-curvature="0" />
          </g>
        </g>
      </g>
    </g>
  </g>
</svg>
