<?xml version="1.0" encoding="utf-8"?>
<!-- Generator: Adobe Illustrator 19.2.1, SVG Export Plug-In . SVG Version: 6.00 Build 0)  -->
<svg version="1.1" id="Layer_1" xmlns="http://www.w3.org/2000/svg" xmlns:xlink="http://www.w3.org/1999/xlink" x="0px" y="0px"
	 viewBox="0 0 89 23" style="enable-background:new 0 0 89 23;" xml:space="preserve">
<style type="text/css">
	.st0{fill:#223F82;}
	.st1{fill:#5DB8E3;}
</style>
<g>
	<g>
		<path class="st0" d="M16.5,2.5c-0.3-0.6-0.8-1.1-1.4-1.5c-0.6-0.4-1.3-0.6-2.2-0.8C12.1,0,11.1,0,10,0H4.8c-0.5,0-1.1,0.4-1.2,1
			L0,16.2c-0.1,0.5,0.2,1,0.8,1h2.5c0.5,0,1.1-0.4,1.2-1l0.9-3.7c0.1-0.5,0.7-1,1.2-1h0.7c3.1,0,5.4-0.6,7.1-1.9
			c1.7-1.3,2.6-2.9,2.6-5C17,3.8,16.8,3.1,16.5,2.5z M11.1,7.5C10.3,8,9.3,8.3,7.9,8.3H7.3c-0.5,0-0.9-0.4-0.8-1l0.8-3.2
			c0.1-0.5,0.7-1,1.2-1h0.8c1,0,1.7,0.2,2.2,0.5c0.5,0.3,0.7,0.8,0.7,1.5C12.2,6.1,11.8,6.9,11.1,7.5z M28.3,4.6
			c-1-0.5-2.4-0.8-4.5-0.8c-1,0-2,0.1-3,0.2c-1,0.2-1.8,0.3-2.2,0.4l-0.4,2.1c-0.1,0.5,0,1,0.2,1c0.4-0.2,1-0.3,1.9-0.6
			c0.8-0.2,1.6-0.3,2.3-0.3c1,0,1.8,0.1,2.3,0.3c0.5,0.2,0.8,0.6,0.8,1.1c0,0.1,0,0.2,0,0.4c0,0.1,0,0.2-0.1,0.2
			c-1.4,0.1-2.8,0.2-4,0.4c-1.2,0.2-2.3,0.5-3.2,0.9c-0.9,0.4-1.7,1-2.2,1.7c-0.5,0.7-0.7,1.6-0.7,2.6c0,1,0.3,1.8,1,2.4
			c0.7,0.6,1.6,0.9,2.6,0.9c0.7,0,1.2,0,1.6-0.1c0.4-0.1,0.8-0.2,1.2-0.4c0.3-0.1,0.7-0.3,1-0.6c0.4-0.2,0.7-0.4,0.9-0.6l-0.3,1.4
			h3.1c0.5,0,1.1-0.4,1.2-1l1.8-7.9c0-0.2,0.1-0.4,0.1-0.6c0-0.2,0-0.4,0-0.6C29.7,6,29.2,5.1,28.3,4.6z M24.2,13.8
			c-0.4,0.3-0.8,0.5-1.3,0.7c-0.5,0.2-0.9,0.3-1.3,0.3c-0.6,0-1.1-0.1-1.4-0.3c-0.3-0.2-0.5-0.5-0.5-0.9c0-0.5,0.1-0.9,0.4-1.2
			c0.2-0.3,0.6-0.5,1.1-0.7c0.5-0.2,1-0.3,1.6-0.4c0.6-0.1,1.3-0.2,2.1-0.2L24.2,13.8z M42.4,3.8c-0.5,0-1.2,0.4-1.6,1l-4.4,7.6
			l-1.2-7.6c-0.1-0.5-0.7-1-1.2-1h-2.2c-0.5,0-0.9,0.4-0.8,1L33,17.3c0,0.3,0.1,0.5,0.1,0.7l-2.4,4c-0.3,0.5-0.2,1,0.4,1h2.6
			c0.5,0,1.2-0.4,1.6-1L46,3.8H42.4z"/>
	</g>
</g>
<g>
	<g>
		<path class="st1" d="M83.3,0.7h1v2.7h0.4V0.7h1V0.3h-2.4V0.7z M88.5,0.3l-0.7,2.1c-0.1,0.2-0.1,0.4-0.2,0.5c0-0.1-0.1-0.2-0.1-0.4
			l-0.7-2.1h-0.6v3h0.4V0.8l0.9,2.6h0.4l0.9-2.5v2.5H89v-3H88.5z M60.7,2.5C60.4,1.9,60,1.4,59.4,1c-0.6-0.4-1.3-0.6-2.2-0.8
			C56.3,0,55.4,0,54.2,0H49c-0.5,0-1.1,0.4-1.2,1l-3.5,15.3c-0.1,0.5,0.2,1,0.8,1h2.5c0.5,0,1.1-0.4,1.2-1l0.9-3.7
			c0.1-0.5,0.7-1,1.2-1h0.7c3.1,0,5.4-0.6,7.2-1.9c1.7-1.3,2.6-2.9,2.6-5C61.2,3.8,61.1,3.1,60.7,2.5z M55.3,7.5
			c-0.8,0.5-1.8,0.8-3.2,0.8h-0.6c-0.5,0-0.9-0.4-0.8-1l0.8-3.2c0.1-0.5,0.7-1,1.2-1h0.8c1,0,1.7,0.2,2.2,0.5
			c0.5,0.3,0.7,0.8,0.7,1.5C56.5,6.1,56.1,6.9,55.3,7.5z M72.5,4.6c-1-0.5-2.4-0.8-4.5-0.8c-1,0-2,0.1-3,0.2c-1,0.2-1.8,0.3-2.3,0.4
			l-0.4,2.1c-0.1,0.5,0,1,0.2,1c0.4-0.2,1-0.3,1.9-0.6c0.8-0.2,1.6-0.3,2.3-0.3c1,0,1.8,0.1,2.3,0.3c0.5,0.2,0.8,0.6,0.8,1.1
			c0,0.1,0,0.2,0,0.4c0,0.1,0,0.2-0.1,0.2c-1.4,0.1-2.8,0.2-4,0.4c-1.2,0.2-2.3,0.5-3.2,0.9c-0.9,0.4-1.7,1-2.2,1.7
			c-0.5,0.7-0.7,1.6-0.7,2.6c0,1,0.3,1.8,1,2.4c0.7,0.6,1.6,0.9,2.6,0.9c0.7,0,1.2,0,1.6-0.1c0.4-0.1,0.8-0.2,1.2-0.4
			c0.3-0.1,0.7-0.3,1-0.6c0.4-0.2,0.7-0.5,0.9-0.6l-0.3,1.4h3.2c0.5,0,1.1-0.4,1.2-1l1.8-7.9c0-0.2,0.1-0.4,0.1-0.7
			c0-0.2,0-0.4,0-0.6C73.9,6,73.5,5.1,72.5,4.6z M68.4,13.8c-0.4,0.3-0.8,0.5-1.3,0.7c-0.5,0.2-0.9,0.3-1.3,0.3
			c-0.6,0-1.1-0.1-1.4-0.3c-0.3-0.2-0.5-0.5-0.5-0.9c0-0.5,0.1-0.9,0.4-1.2c0.2-0.3,0.6-0.5,1.1-0.7c0.5-0.2,1-0.3,1.6-0.4
			c0.6-0.1,1.3-0.2,2.1-0.2L68.4,13.8z M77.5,1l-3.4,15.2c-0.1,0.5,0.2,1,0.8,1h2.2c0.5,0,1.1-0.4,1.2-1l3.6-16.1h-3.2
			C78.2,0.1,77.7,0.5,77.5,1z"/>
	</g>
</g>
</svg>
