<?xml version="1.0" encoding="utf-8"?>
<!-- Generator: Adobe Illustrator 19.2.1, SVG Export Plug-In . SVG Version: 6.00 Build 0)  -->
<svg version="1.1" id="Layer_1" xmlns="http://www.w3.org/2000/svg" xmlns:xlink="http://www.w3.org/1999/xlink" x="0px" y="0px"
	 viewBox="0 0 101 17" style="enable-background:new 0 0 101 17;" xml:space="preserve">
<style type="text/css">
	.st0{fill:#098AC9;}
	.st1{fill:#E3202A;}
</style>
<g>
	<g>
		<path class="st0" d="M18.3,4.8h-3.1c-0.3,0-0.5,0.1-0.8,0.2c-0.3,0.1-0.5,0.3-0.7,0.4c-0.3,0.4-0.5,1-0.5,1.7V17h2.2v-3.3h3
			c0.6,0,1-0.2,1.4-0.6c0.4-0.4,0.6-0.8,0.6-1.4V7.1C20.4,5.6,19.7,4.8,18.3,4.8z M18.2,10.9c0,0.1-0.1,0.3-0.2,0.4
			c-0.1,0.1-0.2,0.2-0.4,0.2h-1.6c-0.5,0-0.7-0.2-0.7-0.7V7.7c0-0.4,0.2-0.6,0.6-0.7h1.7c0.3,0,0.5,0.2,0.5,0.5V10.9z M27.2,4.8h-5
			v2.2h4.4c0.4,0,0.6,0.1,0.6,0.5v0.2h-2.9c-1.4,0-2.1,0.7-2.1,2.1v1.8c0,1.3,0.8,2,2.2,2h3c0.6,0,1.1-0.2,1.4-0.6
			c0.4-0.4,0.5-0.9,0.6-1.5V6.9C29.4,5.5,28.7,4.8,27.2,4.8z M27.3,11c0,0.3-0.2,0.4-0.6,0.4H25c-0.2,0-0.3,0-0.4-0.1
			c-0.1-0.1-0.2-0.2-0.2-0.3v-0.6c0-0.2,0-0.4,0.1-0.5c0.1-0.1,0.2-0.1,0.5-0.1h1.7c0.4,0,0.6,0.2,0.6,0.5V11z M36.2,10.9
			c0,0.1-0.1,0.3-0.2,0.4c-0.1,0.1-0.3,0.2-0.5,0.2H34c-0.4,0-0.6-0.2-0.6-0.7V4.8h-2.2v6.6c0,0.4,0.1,0.7,0.2,0.9
			c0.1,0.3,0.3,0.5,0.5,0.7c0.2,0.2,0.5,0.4,0.7,0.5c0.2,0.1,0.5,0.1,0.9,0.1h2.8v0.5c0,0.1-0.1,0.3-0.2,0.4
			c-0.1,0.1-0.3,0.2-0.4,0.2h-4.4V17h5.1c0.6,0,1.1-0.2,1.5-0.7c0.4-0.4,0.5-1,0.6-1.7V4.8h-2.2V10.9z M40.2,6.8v1.7
			c0,0.5,0.2,0.9,0.6,1.3c0.4,0.4,0.9,0.6,1.5,0.6h1.9c0.1,0,0.2,0.1,0.3,0.3c0,0.1,0.1,0.1,0.1,0.2V11c0,0.3-0.2,0.4-0.6,0.4h-3.9
			v2.2h4.6c0.4,0,0.7,0,0.9-0.1c0.2-0.1,0.4-0.2,0.6-0.5c0.4-0.5,0.6-0.9,0.6-1.4v-1.6c0-0.5-0.2-1-0.6-1.4
			c-0.4-0.4-0.8-0.6-1.3-0.6H43c-0.5,0-0.7-0.1-0.7-0.4V7.5c0-0.3,0.2-0.4,0.7-0.4h3.9V4.8h-4.5C40.9,4.8,40.2,5.5,40.2,6.8z
			 M53.4,4.8h-5v2.2h4.4c0.4,0,0.6,0.1,0.6,0.5v0.2h-2.9c-1.4,0-2.1,0.7-2.1,2.1v1.8c0,1.3,0.8,2,2.2,2h3c0.6,0,1.1-0.2,1.4-0.6
			c0.4-0.4,0.5-0.9,0.5-1.5V6.9C55.6,5.5,54.9,4.8,53.4,4.8z M53.5,11c0,0.3-0.2,0.4-0.6,0.4h-1.7c-0.2,0-0.3,0-0.4-0.1
			c-0.1-0.1-0.2-0.2-0.2-0.3v-0.6c0-0.2,0-0.4,0.1-0.5c0.1-0.1,0.2-0.1,0.5-0.1h1.7c0.4,0,0.6,0.2,0.6,0.5V11z M58.1,2.1
			c-0.4,0.4-0.7,0.9-0.7,1.5v10.1h2.2V7.1h1.6V4.8h-1.6V4.3c0-0.4,0.2-0.6,0.7-0.7h0.8V1.5h-1.4C59.1,1.5,58.6,1.7,58.1,2.1z
			 M67.6,4.8h-3c-1.4,0-2.1,0.7-2.1,2.1l0,4.5c0,0.4,0,0.8,0.1,1c0.1,0.2,0.2,0.5,0.5,0.7c0.2,0.2,0.4,0.3,0.7,0.4
			c0.2,0.1,0.6,0.1,1,0.1h4.8v-2.2h-4.5c-0.1,0-0.2-0.1-0.3-0.2c-0.1-0.1-0.1-0.2-0.1-0.4v-0.1l5-1.9V7C69.7,5.5,69,4.8,67.6,4.8z
			 M67.5,7.5l-2.8,1V7.6c0-0.2,0.1-0.3,0.2-0.4c0.1-0.1,0.3-0.2,0.5-0.2h1.5c0.2,0,0.3,0,0.4,0.1C67.4,7.2,67.5,7.3,67.5,7.5
			L67.5,7.5z M73.6,13.1c-0.2,0-0.5-0.2-0.7-0.3c-0.2-0.2-0.4-0.4-0.5-0.7c-0.1-0.3-0.1-0.6-0.1-0.9V7c0-0.6,0.2-1.1,0.5-1.3
			c0.3-0.2,0.8-0.4,1.4-0.4h3.3V4.8h-3.4c-0.4,0-0.7,0-0.9,0.1c-0.3,0.1-0.6,0.3-0.8,0.5c-0.2,0.2-0.4,0.5-0.5,0.8
			c-0.1,0.3-0.1,0.6-0.1,0.9v4.2c0,0.4,0.1,0.8,0.2,1.1c0.1,0.3,0.3,0.6,0.6,0.9c0.3,0.2,0.6,0.4,0.9,0.4c0.3,0.1,0.6,0.1,0.9,0.1
			h3.2v-0.5h-3.1C74.1,13.2,73.8,13.1,73.6,13.1z M85.6,5c-0.1-0.1-0.3-0.2-0.5-0.2c-0.3-0.1-0.7-0.1-1.1-0.1h-4.5v0.5h4.8
			c0.3,0,0.6,0,0.8,0.1c0.2,0.1,0.5,0.2,0.6,0.5c0.3,0.4,0.4,0.8,0.4,1.3v0.6h-4.4c-1.5,0-2.3,0.8-2.3,2.3v1.4
			c0,0.7,0.2,1.3,0.7,1.7c0.4,0.4,1,0.6,1.7,0.6h2.6c0.7,0,1.3-0.2,1.7-0.7c0.2-0.3,0.4-0.5,0.4-0.8c0-0.3,0.1-0.6,0.1-0.9v-4
			c0-0.7-0.2-1.3-0.6-1.8C85.9,5.3,85.8,5.1,85.6,5z M86.1,11.4c0,1.2-0.6,1.7-1.7,1.8h-2.7c-0.5,0-0.9-0.2-1.3-0.5
			c-0.2-0.2-0.4-0.4-0.4-0.6C80,11.9,80,11.6,80,11.4V10c0-0.6,0.2-1,0.5-1.3c0.3-0.3,0.7-0.5,1.2-0.5h4.4V11.4z M89.3,7.3v6.4h0.5
			V7.3c0-1.3,0.6-2,1.8-2h0.7V4.8h-0.6C90.1,4.8,89.2,5.6,89.3,7.3z M100.5,1.9v2.9h-4.1c-1.7,0-2.6,0.8-2.6,2.6v3.8
			c0,0.4,0,0.7,0.1,1c0.1,0.3,0.2,0.6,0.4,0.9c0.3,0.3,0.6,0.5,1,0.6c0.3,0.1,0.7,0.1,1.1,0.1h2c1.8,0,2.7-0.8,2.7-2.5V1.9H100.5z
			 M100.5,11.2c0,0.7-0.2,1.2-0.7,1.5c-0.4,0.3-1,0.5-1.7,0.5h-1.8c-0.3,0-0.6,0-0.8-0.1c-0.2-0.1-0.5-0.1-0.7-0.3
			c-0.4-0.2-0.6-0.7-0.6-1.4V7.3c0-0.3,0-0.6,0.1-0.8c0.1-0.2,0.2-0.4,0.4-0.7c0.2-0.2,0.5-0.4,0.7-0.5c0.2-0.1,0.5-0.1,0.8-0.1h4.2
			V11.2z"/>
	</g>
</g>
<g>
	<g>
		<path class="st1" d="M1.5,4.3c0.3-1.5,1.7-2.6,3.3-2.6c1.6,0,3,1.1,3.3,2.6c0.5,0.1,0.9,0.3,1.2,0.6c0-0.3,0-0.6,0-0.8
			C9,1.8,7.1,0,4.7,0C2.3,0,0.4,1.9,0.2,4.3c0,0.2,0,0.4,0,0.6c0.2-0.2,0.4-0.3,0.7-0.4C1.1,4.4,1.3,4.3,1.5,4.3z M7.3,4.8H2
			C1.7,4.8,1.5,4.9,1.2,5C0.9,5.1,0.7,5.2,0.5,5.4C0.2,5.8,0,6.4,0,7.2v4.2c0,0.8,0.2,1.3,0.5,1.7c0.2,0.2,0.4,0.3,0.7,0.4
			c0.3,0.1,0.5,0.2,0.8,0.2h5.4c1.4,0,2.1-0.8,2.1-2.3V7.1C9.4,5.6,8.7,4.8,7.3,4.8z"/>
	</g>
</g>
</svg>
