<?xml version="1.0" encoding="UTF-8" standalone="no"?>
<svg
   xmlns:dc="http://purl.org/dc/elements/1.1/"
   xmlns:cc="http://creativecommons.org/ns#"
   xmlns:rdf="http://www.w3.org/1999/02/22-rdf-syntax-ns#"
   xmlns:svg="http://www.w3.org/2000/svg"
   xmlns="http://www.w3.org/2000/svg"
   xmlns:sodipodi="http://sodipodi.sourceforge.net/DTD/sodipodi-0.dtd"
   xmlns:inkscape="http://www.inkscape.org/namespaces/inkscape"
   width="882.81482"
   height="131.11111"
   viewBox="0 0 882.81482 131.11111"
   version="1.1"
   id="svg16"
   sodipodi:docname="paysafecash.svg"
   inkscape:version="0.92.2 5c3e80d, 2017-08-06">
  <metadata
     id="metadata22">
    <rdf:RDF>
      <cc:Work
         rdf:about="">
        <dc:format>image/svg+xml</dc:format>
        <dc:type
           rdf:resource="http://purl.org/dc/dcmitype/StillImage" />
        <dc:title></dc:title>
      </cc:Work>
    </rdf:RDF>
  </metadata>
  <defs
     id="defs20" />
  <sodipodi:namedview
     pagecolor="#ffffff"
     bordercolor="#666666"
     borderopacity="1"
     objecttolerance="10"
     gridtolerance="10"
     guidetolerance="10"
     inkscape:pageopacity="0"
     inkscape:pageshadow="2"
     inkscape:window-width="1038"
     inkscape:window-height="660"
     id="namedview18"
     showgrid="false"
     inkscape:zoom="0.32727273"
     inkscape:cx="402.71296"
     inkscape:cy="-50.055556"
     inkscape:window-x="0"
     inkscape:window-y="0"
     inkscape:window-maximized="0"
     inkscape:current-layer="svg16" />
  <g
     id="paysafecash"
     style="fill:none;fill-rule:evenodd;stroke:none;stroke-width:1"
     transform="matrix(8.7407408,0,0,8.7407408,-43.703704,-218.51852)">
    <g
       id="ps_cash_logo_full_colour_rgb"
       transform="translate(5,25)"
       style="fill-rule:nonzero">
      <circle
         id="Oval"
         cx="62"
         cy="6"
         r="2"
         style="fill:#7887e6" />
      <circle
         id="circle3"
         cx="62"
         cy="11"
         r="2"
         style="fill:#ff5073" />
      <path
         d="M 59,8.7246532 V 8.036286 C 59,5.47492 57.145904,3.5859125 54.613075,3.5859125 c -2.516274,0 -4.469697,1.9370331 -4.469697,4.642476 0,2.7694775 1.854097,4.5304165 4.800786,4.5304165 0.827722,0 2.450056,-0.144077 3.708193,-0.976521 l -0.794613,-1.696905 c -0.844276,0.464248 -1.705107,0.672358 -2.483165,0.672358 -0.06622,0 -0.132435,0 -0.198653,0 -0.01655,0 -0.03311,0 -0.04966,0 -0.06622,0 -0.115881,-0.01601 -0.182099,-0.01601 -0.01656,0 -0.03311,0 -0.03311,0 -0.04966,0 -0.09933,-0.01601 -0.14899,-0.03202 -0.01655,0 -0.03311,0 -0.04966,-0.01601 -0.04966,-0.01601 -0.09933,-0.01601 -0.14899,-0.03202 -0.03311,0 -0.04966,-0.01601 -0.08277,-0.01601 -0.03311,-0.01601 -0.06622,-0.01601 -0.09933,-0.03202 -0.03311,-0.01601 -0.06622,-0.03202 -0.115881,-0.04803 -0.01655,0 -0.01655,-0.01601 -0.03311,-0.01601 -0.04966,-0.03202 -0.115881,-0.04803 -0.165544,-0.08004 0,0 0,0 0,0 -0.115881,-0.06403 -0.215208,-0.144077 -0.314534,-0.240128 0,0 0,0 0,0 -0.03311,-0.03202 -0.08277,-0.08004 -0.115881,-0.11206 -0.01656,-0.01601 -0.03311,-0.03202 -0.03311,-0.04803 -0.01655,-0.03202 -0.03311,-0.04802 -0.06622,-0.080042 -0.03311,-0.048026 -0.06622,-0.080043 -0.09933,-0.1280683 0,0 0,0 0,0 -0.182098,-0.2881536 -0.297979,-0.65635 -0.347643,-1.1045891 H 59 Z M 54.62963,5.506937 c 0.778058,0 1.407127,0.6083245 1.506453,1.7609392 H 53.123176 C 53.222503,6.1152615 53.835017,5.506937 54.62963,5.506937 Z M 29.913861,6.2753468 c 0,-0.4162219 0.430415,-0.6723585 1.142256,-0.6723585 0.744949,0 1.523008,0.2561366 2.102413,0.4962646 L 33.953142,4.2902881 C 33.208193,3.9220918 32.065937,3.5859125 30.923681,3.5859125 c -2.118967,0 -3.824074,0.9284952 -3.824074,2.7854856 0,2.9135539 4.254489,2.3852721 4.254489,3.6819639 0,0.480256 -0.496632,0.720384 -1.324354,0.720384 -0.844276,0 -1.671998,-0.272145 -2.301066,-0.576307 l -0.910494,1.760939 c 1.059483,0.54429 2.301066,0.800427 3.459876,0.800427 2.05275,0 3.840629,-1.024547 3.840629,-2.9135542 C 34.102132,6.963714 29.913861,7.4439701 29.913861,6.2753468 Z M 13.491863,3.5859125 c -1.75477,0 -3.145342,0.5282817 -3.9896183,1.0405549 l 0.7780583,1.5688368 c 0.513188,-0.2241196 1.60578,-0.624333 2.516274,-0.624333 0.662177,0 1.241582,0.2241195 1.241582,0.8964781 v 0.5763074 c -3.9234,-0.2721452 -5.0491018,1.3927428 -5.0491018,2.9295624 0,1.5048029 1.3243548,2.7694769 3.0460158,2.7694769 0.678732,0 1.423681,-0.256136 1.986532,-0.592316 v 0.384205 h 2.847362 V 6.4514408 C 16.885522,4.4823906 15.577722,3.5859125 13.491863,3.5859125 Z m 0.645623,7.0437565 c -0.264871,0.192103 -0.678732,0.33618 -1.125702,0.33618 -0.71184,0 -1.191919,-0.400214 -1.191919,-1.024547 0,-0.7203842 0.579406,-1.4247598 2.301066,-1.1526147 V 10.629669 Z M 39.43266,3.5859125 c -1.75477,0 -3.145342,0.5282817 -3.989619,1.0405549 L 36.2211,6.1953042 c 0.513187,-0.2241196 1.60578,-0.624333 2.516274,-0.624333 0.662177,0 1.241582,0.2241195 1.241582,0.8964781 v 0.5763074 c -3.9234,-0.2721452 -5.049102,1.3927428 -5.049102,2.9295624 0,1.5048029 1.324355,2.7694769 3.046016,2.7694769 0.678732,0 1.423681,-0.256136 1.986532,-0.592316 v 0.384205 h 2.847362 V 6.4514408 C 42.826319,4.4823906 41.535073,3.5859125 39.43266,3.5859125 Z m 0.546296,7.0437565 c -0.264871,0.192103 -0.678732,0.33618 -1.125701,0.33618 -0.711841,0 -1.191919,-0.400214 -1.191919,-1.024547 0,-0.7203842 0.595959,-1.4247598 2.301066,-1.1526147 V 10.629669 Z M 45.143939,3.4418356 V 3.810032 h -1.506453 v 1.8729989 h 1.506453 v 6.8836711 h 2.830808 V 5.6830309 h 1.953424 V 3.7940235 H 47.974747 V 3.3297759 c 0,-0.7684098 0.314535,-1.3287087 1.19192,-1.3287087 0.264871,0 0.595959,0.048026 0.827721,0.1280683 V 0.17609392 C 49.597082,0.08004269 49.166667,0 48.636925,0 46.352413,0 45.143939,1.3607257 45.143939,3.4418356 Z M 24.152918,3.7940235 22.199495,9.0288154 19.948092,3.7940235 h -2.91358 L 20.858586,12.134472 19.666667,15 h 2.698372 L 26.950617,3.7780149 H 24.152918 Z M 4.701459,0.70437567 H 0 V 12.550694 H 2.9135802 V 8.2283885 H 4.701459 c 2.367284,0 4.1386083,-1.4247599 4.1386083,-3.8420491 0,-2.0971185 -1.3243546,-3.68196373 -4.1386083,-3.68196373 z M 4.3869248,6.1632871 H 2.9135802 v -3.39381 h 1.4733446 c 1.0429293,0 1.6388889,0.7043756 1.6388889,1.7129135 0,1.0885806 -0.6621773,1.6808965 -1.6388889,1.6808965 z"
         id="Shape"
         inkscape:connector-curvature="0"
         style="fill:#372341" />
      <path
         d="m 79.561845,4 c -1.777778,0 -3.186583,0.5192308 -4.041929,1.0227273 l 0.78826,1.541958 c 0.519916,-0.2202797 1.626835,-0.6136364 2.549266,-0.6136364 0.67086,0 1.257862,0.2202798 1.257862,0.8811189 V 7.3986014 C 76.140461,7.1311189 75,8.7674825 75,10.277972 75,11.756993 76.341719,13 78.085954,13 c 0.687631,0 1.442348,-0.251748 2.012579,-0.582168 v 0.377623 H 83 V 6.8164336 C 83,4.8811189 81.691824,4 79.561845,4 Z m 0.57023,6.923077 c -0.268343,0.188811 -0.687631,0.33042 -1.140461,0.33042 -0.721174,0 -1.207547,-0.393357 -1.207547,-1.006994 0,-0.7080415 0.603774,-1.4003491 2.331237,-1.1328666 v 1.8094406 z"
         id="path6"
         inkscape:connector-curvature="0"
         style="fill:#7887e6" />
      <path
         d="m 84.888889,10.47561 c 0.619047,0.297909 1.396825,0.56446 2.206349,0.56446 0.793651,0 1.269841,-0.235192 1.269841,-0.705575 0,-1.2543556 -4.079365,-0.736934 -4.079365,-3.606272 C 84.285714,4.9094077 85.920635,4 87.952381,4 c 1.111111,0 2.190476,0.3292683 2.904762,0.6898955 L 90.095238,6.4773519 C 89.555556,6.2421603 88.793651,5.9912892 88.079365,5.9912892 c -0.68254,0 -1.095238,0.2508711 -1.095238,0.6585366 C 86.984127,7.7944251 91,7.3240418 91,10.146342 91,11.996516 89.301587,13 87.31746,13 86.206349,13 85.015873,12.749129 84,12.216028 Z"
         id="path8"
         inkscape:connector-curvature="0"
         style="fill:#7887e6" />
      <path
         d="M 98.307241,13 V 7.0568336 c 0,-0.6657646 -0.281801,-1.1041949 -0.923679,-1.1041949 -0.657535,0 -1.34638,0.4546685 -1.690803,0.7469553 v 6.284168 H 93 V 1 h 2.692759 V 5.0757781 C 96.381605,4.5074425 97.336595,3.9066306 98.432485,3.9066306 99.528376,3.9066306 101,4.4912043 101,6.9269283 V 13 Z"
         id="path10"
         inkscape:connector-curvature="0"
         style="fill:#7887e6" />
      <path
         d="M 72.316364,9.7744755 C 72.087273,10.561189 71.58,11.064685 70.729091,11.064685 c -1.243636,0 -1.734546,-1.1171325 -1.734546,-2.5332165 0,-1.479021 0.54,-2.548951 1.734546,-2.548951 0.818182,0 1.325455,0.4877622 1.570909,1.2744755 H 75 C 74.492727,5.1800699 72.709091,4 70.729091,4 67.98,4 66,5.6678322 66,8.5 66,11.332168 67.963636,13 70.729091,13 72.725454,13 74.492727,11.81993 75,9.743007 h -2.683636 z"
         id="path12"
         inkscape:connector-curvature="0"
         style="fill:#7887e6" />
    </g>
  </g>
</svg>
