<?xml version="1.0" encoding="utf-8"?>
<!-- Generator: Adobe Illustrator 19.2.1, SVG Export Plug-In . SVG Version: 6.00 Build 0)  -->
<svg version="1.1" id="Layer_1" xmlns="http://www.w3.org/2000/svg" xmlns:xlink="http://www.w3.org/1999/xlink" x="0px" y="0px"
	 viewBox="0 0 91.9 32.3" style="enable-background:new 0 0 91.9 32.3;" xml:space="preserve">
<style type="text/css">
	.st0{fill:#B8B3AD;}
	.st1{fill:#C73537;}
</style>
<g>
	<g>
		<path class="st0" d="M76,14.6c-1.9,0-3.3,0.3-4,0.8c-0.7,0.5-1.2,1.6-1.5,3.2l-0.1,0.7h1.4l0.2-1c0.2-1,0.5-1.7,0.9-2
			c0.5-0.3,1.4-0.4,3-0.4c1.2,0,2,0.2,2.3,0.5c0.3,0.3,0.4,1.1,0.2,2.2c-0.2,1.3-0.5,2.1-0.9,2.4c-0.4,0.3-1.4,0.6-3,0.7
			c-2,0.2-3.3,0.6-3.9,1c-0.6,0.4-1,1.3-1.3,2.7l-0.4,2.5H78l0.2-1.3h-7.8l0.1-0.4c0.2-1.4,0.5-2.2,0.9-2.5c0.4-0.3,1.4-0.5,3-0.7
			c1.9-0.2,3.1-0.5,3.8-1.1c0.6-0.5,1.1-1.6,1.4-3.2c0.3-1.6,0.2-2.7-0.3-3.3C78.9,14.8,77.7,14.6,76,14.6z M90.4,14.7h-2.2
			l-7.8,8.4L80,24.8h7.2l-0.5,3h1.4l0.5-3h1.9l0.2-1.3h-1.9L90.4,14.7z M87.4,23.6h-6l7.3-7.9h0L87.4,23.6z M27.2,8.1l3.1,2.4
			c3.1-1.8,6.1-3.2,9-4.1l-0.6-3.3C34.3,4.5,30.4,6.3,27.2,8.1z M59.3,0C59.3,0,59.2,0,59.3,0l-2.6,5.1c3.8,0.8,7,2.2,9.3,3.5
			L77,2.6C72.4,1.1,66.6,0,59.3,0z M17,15.4h6.2c1.5-1.2,3-2.2,4.4-3.2l-3.2-2.5C19.6,12.8,17,15.4,17,15.4z M41.6,5.7
			c4.6-1.2,8.8-1.4,12.5-1l1.5-4.7c-5.3,0.3-10.1,1.1-14.4,2.3L41.6,5.7z M91.9,12.1c0,0-2.4-3.8-9-7.1l-14.4,5.5c1.3,1,2,1.7,2,1.7
			H91.9z"/>
	</g>
</g>
<g>
	<g>
		<path class="st1" d="M11.2,15.7c-0.4-0.6-1.4-0.9-2.9-0.9h-6L0,28.2h1.5l0.9-5.2h3.8l0.6,0c1.5,0,2.6-0.3,3.3-0.8
			c0.7-0.6,1.1-1.6,1.4-3.1C11.7,17.4,11.6,16.3,11.2,15.7z M10,19.1c-0.2,1.1-0.5,1.8-1,2.1c-0.5,0.3-1.4,0.5-2.9,0.5H2.6l1-5.5h4
			l0.6,0c1,0,1.7,0.2,1.9,0.5C10.2,17,10.2,17.8,10,19.1z M17.4,21.7l-0.1,0.2h1.3l0.1-0.6c0.3-1.8-0.4-2.7-2.1-2.7
			c-1.2,0-2.2,0.4-2.9,1.3l0,0l0.3-1.1h-1.3l-1.6,9.3h1.3l1-5.6c0.3-1.9,1.2-2.8,2.7-2.8c1,0,1.5,0.5,1.3,1.4
			C17.5,21.3,17.4,21.4,17.4,21.7z M19.7,20h5L18,26.9l-0.2,1.3h7.1l0.2-1.1h-5.5l6.7-6.9l0.2-1.3h-6.6L19.7,20z M31.6,18.7
			c-1.5,0-2.6,0.3-3.3,1c-0.6,0.6-1.1,1.9-1.5,3.7c-0.4,2-0.3,3.3,0.1,4c0.4,0.6,1.5,0.9,3.2,0.9c1.5,0,2.5-0.2,3.1-0.6
			c0.6-0.4,1.1-1.1,1.2-2l0.1-0.3h-1.4l-0.1,0.3c-0.1,0.6-0.3,1.1-0.7,1.2c-0.4,0.2-1.1,0.3-2.2,0.3c-1.1,0-1.8-0.2-2.1-0.6
			c-0.2-0.4-0.2-1.3,0-2.8h6.6l0.1-0.7c0.3-1.8,0.3-2.9-0.2-3.5C34.3,19,33.3,18.7,31.6,18.7z M33.7,22.2l-0.1,0.4h-5.2
			c0.2-1.2,0.5-2,0.9-2.3c0.4-0.4,1.1-0.5,2.2-0.5c1.1,0,1.8,0.2,2,0.5C33.8,20.6,33.8,21.2,33.7,22.2z M37.9,14.8l-2.3,13.3h1.3
			l2.3-13.3H37.9z M44.1,18.7c-1.5,0-2.6,0.3-3.3,1c-0.6,0.6-1.1,1.9-1.5,3.7c-0.4,2-0.3,3.3,0.1,4c0.4,0.6,1.5,0.9,3.2,0.9
			c1.5,0,2.5-0.2,3.1-0.6c0.6-0.4,1.1-1.1,1.2-2l0.1-0.3h-1.4l-0.1,0.3c-0.1,0.6-0.3,1.1-0.7,1.2c-0.4,0.2-1.1,0.3-2.2,0.3
			c-1.1,0-1.8-0.2-2.1-0.6c-0.2-0.4-0.2-1.3,0-2.8h6.6l0.1-0.7c0.3-1.8,0.3-2.9-0.2-3.5C46.8,19,45.8,18.7,44.1,18.7z M46.2,22.2
			l-0.1,0.4h-5.2c0.2-1.2,0.5-2,0.9-2.3c0.4-0.4,1.1-0.5,2.2-0.5c1.1,0,1.8,0.2,2,0.5C46.3,20.6,46.4,21.2,46.2,22.2z M60.1,18.8
			L57.9,24l-0.7,1.6l-0.3,0.8l-0.3,0.8h0l0-0.8l0-0.8L56.3,24l-0.3-5.2h-2L51.8,24l-0.7,1.6l-0.3,0.8l-0.3,0.8h0l-0.1-0.8l-0.1-0.8
			L50.2,24l-0.4-5.2h-1.4l0.9,9.3h2l2.1-5.2l0.7-1.6l0.3-0.8l0.3-0.8h0l0,0.8l0,0.8L55,23l0.3,5.2h2l4.2-9.3H60.1z M68.3,18.8
			L66.5,23l-0.9,2.1l-0.4,1l-0.4,1h0l-0.2-1l-0.2-1L64,23l-0.7-4.2h-1.4L63.8,29l-0.2,0.5c-0.6,1.2-1.2,1.8-1.9,1.8
			c-0.1,0-0.3,0-0.5-0.1L61,32.3c0.3,0,0.5,0.1,0.6,0.1c0.8,0,1.5-0.3,2-0.8c0.5-0.5,1.1-1.5,1.7-2.9l4.3-9.9H68.3z"/>
	</g>
</g>
</svg>
