<?xml version="1.0" encoding="utf-8"?>
<!-- Generator: Adobe Illustrator 19.2.1, SVG Export Plug-In . SVG Version: 6.00 Build 0)  -->
<svg version="1.1" id="Layer_1" xmlns="http://www.w3.org/2000/svg" xmlns:xlink="http://www.w3.org/1999/xlink" x="0px" y="0px"
	 viewBox="0 0 82.3 23.3" style="enable-background:new 0 0 82.3 23.3;" xml:space="preserve">
<style type="text/css">
	.st0{fill:#EB7F23;}
	.st1{fill-rule:evenodd;clip-rule:evenodd;fill:#383A41;}
</style>
<g>
	<g>
		<path class="st0" d="M12.4,4.9c-0.1-0.7,0.6-1.3,1.2-1.3c1.8,0,3.6,0,5.4,0c1-1.3,2.1-2.4,3.4-3.3c-3.5,0-7.1-0.1-10.6,0
			C9.2,1,7.7,3.7,7.5,6.2c0.2,2.1,2.8,2.3,4.4,2.9c0,0.7-0.1,1.4-0.9,1.5c-3.2,0.1-6.5,0-9.7,0.1C0.8,11.9,0.4,13,0,14.2
			c3.6,0,7.3,0.2,10.9-0.1c2.1-0.1,4.2-1.3,5.1-3.3c0.6-1.3,1.1-2.8,0.2-4.1C15.3,5.6,13.5,5.8,12.4,4.9z M37.7,3.7
			c1.7-0.1,3.5,0,5.3-0.1c1-1.3,2.3-2.4,3.6-3.3c-2.9,0-5.9,0-8.8,0c-2,0-3.8,1.5-4.4,3.3c-1.3,3.5-2.7,7.1-3.9,10.6
			c1.5,0.1,2.9,0.3,4.4,0c0.7-1.8,1.3-3.7,2.1-5.5c1.3,0,2.6,0,3.8,0c0.4-0.9,0.7-1.9,1.1-2.9c-1.2,0-2.5,0-3.7,0
			C37.2,5.2,37.4,4.4,37.7,3.7z M68.1,0.2c0.8,0.9,1.2,2.1,1.3,3.3c0.8,0,1.7,0,2.5,0c-1.3,3.5-2.6,7.1-4,10.6c1.4,0,2.7,0,4.1,0
			c1.3-3.5,2.7-7.1,3.9-10.6c1.7,0,3.5,0,5.2,0c0.4-1.1,0.8-2.2,1.3-3.3C77.6,0.2,72.8,0.3,68.1,0.2z M29.7,0.5
			c-2.5-1.1-5.5-0.3-7.5,1.3c-2.3,1.8-3.7,4.5-4.4,7.2c-0.3,1.6-0.3,3.5,1.2,4.6c1.4,1.1,3.2,0.9,4.9,0.8c1.7-0.5,3.2-1.3,4.4-2.7
			c1.8-2.2,3.1-4.8,3.4-7.6C31.6,2.8,31.1,1.2,29.7,0.5z M26.8,6.7c-0.6,1.5-1.1,3.1-2.3,4.2c-0.7,0.6-1.7,0.4-2.5,0.2
			C21.6,9,22.5,7,23.5,5.2c0.7-1.3,2.3-2.7,3.7-1.8C27.7,3.7,27.2,5.6,26.8,6.7z M67.9,1.9c-0.6-1-1.8-1.5-2.9-1.6
			c-2.1-0.1-4.2,0-6.3-0.1c-1.8,4.7-3.5,9.3-5.3,14c1.5,0,3,0,4.5,0c0.6-1.6,1.2-3.2,1.9-4.7c0.5,1.6,0.9,3.2,1.2,4.7
			c1.6,0.1,3.1,0.1,4.7,0c-0.4-2-1.1-4-1.8-5.9c1.3-0.6,2.7-1.3,3.4-2.6C68.1,4.6,68.2,3.2,67.9,1.9z M63,5.9
			c-0.7,0.6-1.7,0.5-2.6,0.6c0.4-1.1,0.8-2.3,1.2-3.4c0.7,0,1.4,0,2.1,0.2C64.2,4.2,63.7,5.3,63,5.9z M53.7,0.5
			c-2.5-1.1-5.5-0.3-7.5,1.3c-2.3,1.8-3.7,4.5-4.4,7.2c-0.3,1.6-0.3,3.5,1.2,4.6c1.4,1.1,3.2,0.9,4.9,0.8c1.7-0.5,3.2-1.3,4.4-2.7
			c1.8-2.2,3.1-4.8,3.4-7.6C55.6,2.8,55.1,1.1,53.7,0.5z M50.8,6.7c-0.6,1.5-1.1,3.1-2.3,4.2c-0.7,0.6-1.7,0.4-2.5,0.2
			C45.6,9,46.6,7,47.5,5.2c0.7-1.3,2.3-2.7,3.7-1.8C51.7,3.7,51.2,5.6,50.8,6.7z"/>
	</g>
</g>
<g>
	<g>
		<path class="st1" d="M6.9,16.3c-1-1-2.7-0.4-4-0.5c-0.9,2.2-1.7,4.5-2.6,6.8c1.3,0,2.5,0,3.8,0c1.5-0.6,2.9-2.3,1.7-3.8
			C6.6,18.2,7.5,17.3,6.9,16.3z M4.5,21.1c-0.6,0.6-1.6,0.5-2.4,0.5c0.3-0.7,0.5-1.4,0.8-2.1c0.6,0.1,1.3,0.2,1.9,0.3
			C4.7,20.3,4.7,20.8,4.5,21.1z M3.5,18.4c0.2-0.6,0.4-1.1,0.6-1.7c0.5,0.1,0.9,0.1,1.4,0.2c0,0.1,0.1,0.4,0.1,0.6
			C5,18.1,4.3,18.5,3.5,18.4z M48,17c0.1,0.1,0.3,0.4,0.4,0.6c0.3-0.5,1-1.4,0.1-1.6c-3.4-1.4-7.3,1.8-7,5.2c0,0.8,0.7,1.4,1.4,1.6
			c1.3,0.5,2.6,0,3.8-0.3c0.4-1.1,0.9-2.3,1.2-3.5c-1.2-0.1-2.9-0.7-3.4,0.8c0.5,0.1,1,0.1,1.5,0.2c-0.2,0.5-0.4,1.1-0.5,1.6
			c-0.9,0.3-2.2,0.3-2.5-0.7C42.7,18.3,45.6,16,48,17z M38.3,20.6c-0.3-1.6-0.5-3.2-0.9-4.8c-0.7,0-1.3,0.1-2,0.1
			c-0.8,2.3-1.8,4.5-2.5,6.8c0.4,0,0.8,0,1.2,0c0.7-1.7,1.3-3.4,2-5.1c0.3,1.7,0.5,3.4,0.9,5.1c0.6,0,1.2,0,1.8-0.1
			c0.7-2.3,1.7-4.5,2.5-6.8c-0.4,0-0.9,0-1.3,0C39.5,17.4,38.9,19,38.3,20.6z M31.9,15.8c-0.8,2.3-1.7,4.6-2.6,6.8c0.5,0,1,0,1.4,0
			c0.9-2.3,1.7-4.6,2.6-6.9C32.9,15.8,32.4,15.8,31.9,15.8z M6.5,22.7c0.5,0,1,0,1.4,0c0.3-0.5,0.7-1,1-1.5c0.9,0,1.9,0,2.8,0
			c0,0.5,0,1-0.1,1.5c0.5,0,1,0,1.5,0c0.1-2.3,0-4.6,0.1-6.9c-0.6,0-1.2,0-1.8,0C9.8,18.1,8.1,20.3,6.5,22.7z M11.7,20
			c-0.6,0-1.3,0-1.9,0c0.6-1,1.3-1.9,2.1-2.7C11.9,18.2,11.8,19.1,11.7,20z M30.4,15.8c-0.5,0-1.1-0.1-1.6,0.1
			c-1.1,0.8-2,1.9-3.1,2.8c0.2-1,0.6-2,1-2.9c-0.5,0-1,0-1.4,0c-0.8,2.1-1.5,4.2-2.4,6.3c0,0.2-0.1,0.5-0.1,0.6c0.5,0,0.9,0,1.4,0
			c0.4-1.1,0.8-2.2,1.3-3.3c0.4,1.1,0.7,2.2,1,3.4c0.6,0,1.1,0,1.7,0c-0.3-1.2-0.7-2.5-1.1-3.7C28.1,17.9,29.4,17,30.4,15.8z
			 M21.8,15.8c-0.6,1.6-1.2,3.2-1.8,4.8c-0.3-1.6-0.6-3.2-0.8-4.7c-0.6,0-1.3-0.2-1.9,0c-1.1,2.2-1.7,4.5-2.7,6.8
			c0.5,0,0.9,0,1.4-0.1c0.6-1.7,1.3-3.4,1.8-5.1c0.4,1.7,0.6,3.4,1,5.1c0.6,0,1.2,0,1.8,0c0.9-2.3,1.7-4.6,2.6-6.8
			C22.7,15.8,22.2,15.8,21.8,15.8z"/>
	</g>
</g>
</svg>
